<?xml version="1.0" encoding="UTF-8"?>
<svg width="149px" height="30px" viewBox="0 0 149 30" version="1.1" xmlns="http://www.w3.org/2000/svg" xmlns:xlink="http://www.w3.org/1999/xlink">
    <!-- Generator: Sketch 51.2 (57519) - http://www.bohemiancoding.com/sketch -->
    <title>Logo</title>
    <desc>Created with Sketch.</desc>
    <defs></defs>
    <g id="JB" stroke="none" stroke-width="1" fill="none" fill-rule="evenodd">
        <g id="1-1-3-Jednorazove-brigady---Ne" transform="translate(-48.000000, -21.000000)" fill-rule="nonzero">
            <g id="Top-Bar">
                <g id="Logo" transform="translate(48.000000, 21.000000)">
                    <g id="Group-3" transform="translate(38.801819, 6.000000)">
                        <path d="M0.10348517,8.36217495 C0.10348517,3.13115788 2.80221766,0.616154225 7.23613152,0.616154225 C11.6710321,0.616154225 14.3682845,3.13115788 14.3682845,8.36217495 C14.3682845,12.0908584 12.9740216,14.4543902 10.5747645,15.4899239 C11.167795,15.7333267 11.7854939,16.108672 12.2196593,16.6373944 C12.3795111,16.8369751 12.4480895,17.0132159 12.4480895,17.1894567 C12.4480895,17.5871893 12.1051975,17.9177598 11.6710321,17.9177598 C11.4652969,17.9177598 11.2822568,17.8520268 11.09971,17.674357 C10.0937291,16.5940486 9.43113349,16.085332 7.23613152,16.085332 C2.80221766,16.085332 0.10348517,13.5484173 0.10348517,8.36217495 Z M1.70446998,8.36217495 C1.70446998,12.6657844 3.7391268,14.7177988 7.23613152,14.7177988 C10.7336296,14.7177988 12.7682864,12.6657844 12.7682864,8.36217495 C12.7682864,4.03570181 10.7336296,1.98368746 7.23613152,1.98368746 C3.7391268,1.98368746 1.70446998,4.03570181 1.70446998,8.36217495 Z" id="Fill-3" fill="#DCF6E7"></path>
                        <path d="M19.0089203,6.28777326 L19.0089203,12.047989 C19.0089203,13.4817316 19.4894624,14.7177988 21.7979394,14.7177988 C24.1064164,14.7177988 24.5874519,13.4817316 24.5874519,12.047989 L24.5874519,6.28777326 C24.5874519,5.890517 24.9303439,5.58138113 25.341321,5.58138113 C25.729603,5.58138113 26.0502932,5.890517 26.0502932,6.28777326 L26.0502932,12.047989 C26.0502932,14.1443017 25.341321,16.06485 21.7979394,16.06485 C18.2777463,16.06485 17.546079,14.1443017 17.546079,12.047989 L17.546079,6.28777326 C17.546079,5.890517 17.8657826,5.58138113 18.2777463,5.58138113 C18.6660283,5.58138113 19.0089203,5.890517 19.0089203,6.28777326" id="Fill-4" fill="#DCF6E7"></path>
                        <path d="M29.5472979,2.66816857 C29.5472979,2.0275095 29.8670015,1.78458301 30.4156287,1.78458301 C30.9647491,1.78458301 31.2849461,2.0275095 31.2849461,2.66816857 C31.2849461,3.19736726 30.9647491,3.5060268 30.4156287,3.5060268 C29.8670015,3.5060268 29.5472979,3.19736726 29.5472979,2.66816857 Z M31.1468027,15.2479501 C31.1468027,15.6456827 30.8275924,15.9533896 30.4156287,15.9533896 C30.0046516,15.9533896 29.6844546,15.6456827 29.6844546,15.2479501 L29.6844546,6.28777326 C29.6844546,5.890517 30.0046516,5.58138113 30.4156287,5.58138113 C30.8275924,5.58138113 31.1468027,5.890517 31.1468027,6.28777326 L31.1468027,15.2479501 Z" id="Fill-5" fill="#DCF6E7"></path>
                        <path d="M39.0565063,5.44848607 C41.0916566,5.44848607 42.2116059,6.48544874 42.5771928,6.97177805 C42.6911612,7.12658413 42.737538,7.2356629 42.737538,7.39046898 C42.737538,7.76629057 42.4390492,8.03112806 42.0739557,8.03112806 C41.845032,8.03112806 41.6856737,7.94253135 41.5248351,7.76629057 C41.1829299,7.39046898 40.5657245,6.7298042 39.0565063,6.7298042 C36.9527777,6.7298042 35.8328285,8.03112806 35.8328285,10.7457125 C35.8328285,13.504119 36.9527777,14.7835318 39.0565063,14.7835318 C40.3826842,14.7835318 41.1829299,14.2100348 41.7083688,13.8356422 C41.8682206,13.7241818 41.982189,13.6808361 42.1435209,13.6808361 C42.5091078,13.6808361 42.8061165,13.9680609 42.8061165,14.3214952 C42.8061165,14.519647 42.737538,14.6744531 42.5091078,14.8735575 C42.0058707,15.2693848 40.9081231,16.06485 39.0565063,16.06485 C36.1076355,16.06485 34.3472923,14.3653172 34.3472923,10.7457125 C34.3472923,7.12658413 36.1076355,5.44848607 39.0565063,5.44848607" id="Fill-6" fill="#DCF6E7"></path>
                        <path d="M52.7041,15.622819 L48.6574816,10.6132938 L47.263712,11.6945548 L47.263712,15.2479501 C47.263712,15.6456827 46.9425283,15.9533896 46.5320447,15.9533896 C46.1205744,15.9533896 45.8003774,15.6456827 45.8003774,15.2479501 L45.8003774,0.770483997 C45.8003774,0.37275141 46.1205744,0.0640918713 46.5320447,0.0640918713 C46.9425283,0.0640918713 47.263712,0.37275141 47.263712,0.770483997 L47.263712,10.0174094 L52.6582166,5.75809826 C52.8412569,5.60329215 53.0238038,5.58138113 53.1609605,5.58138113 C53.5724308,5.58138113 53.8936147,5.890517 53.8936147,6.28777326 C53.8936147,6.46353772 53.8240495,6.6845532 53.5956193,6.8612703 L49.846996,9.75257184 L53.9148294,14.8068718 C54.052973,14.9607252 54.0756681,15.115055 54.0756681,15.2479501 C54.0756681,15.6456827 53.7554711,15.9533896 53.3440008,15.9533896 C53.0928755,15.9533896 52.8871403,15.8443108 52.7041,15.622819" id="Fill-7" fill="#DCF6E7"></path>
                        <path d="M61.4130628,2.0275095 C61.4130628,1.32111737 62.0080667,0.74857298 62.7387473,0.74857298 C63.4714015,0.74857298 64.0644317,1.32111737 64.0644317,2.0275095 L64.0644317,11.1434451 C64.0644317,13.9680609 62.783644,16.06485 59.2871327,16.06485 C58.3734118,16.06485 57.2075791,15.8443108 56.5666919,15.4684893 C56.1784099,15.2693848 55.9272846,14.9173796 55.9272846,14.4543902 C55.9272846,13.8137312 56.4537102,13.3064435 57.1158124,13.3064435 C57.322041,13.3064435 57.458211,13.3497892 57.6417445,13.4159986 C58.21356,13.6360614 58.8080706,13.7465691 59.2871327,13.7465691 C60.8190457,13.7465691 61.4130628,12.6443497 61.4130628,11.1434451 L61.4130628,2.0275095" id="Fill-11" fill="#2fbd68"></path>
                        <path d="M67.128258,8.36217495 C67.128258,3.13115788 69.756932,0.616154225 74.3753661,0.616154225 C78.9923202,0.616154225 81.6209941,3.13115788 81.6209941,8.36217495 C81.6209941,13.5265063 78.9923202,16.085332 74.3753661,16.085332 C69.756932,16.085332 67.128258,13.5265063 67.128258,8.36217495 Z M69.8713936,8.36217495 C69.8713936,12.004167 71.3579167,13.7913438 74.3753661,13.7913438 C77.3923219,13.7913438 78.8778583,12.004167 78.8778583,8.36217495 C78.8778583,4.69779558 77.3923219,2.9101424 74.3753661,2.9101424 C71.3579167,2.9101424 69.8713936,4.69779558 69.8713936,8.36217495 Z" id="Fill-12" fill="#2fbd68"></path>
                        <path d="M86.0105046,15.7781014 C85.2783439,15.7781014 84.6843268,15.2041281 84.6843268,14.4977359 L84.6843268,2.20517926 C84.6843268,1.49878714 85.2783439,0.924813766 86.0105046,0.924813766 L90.1242216,0.924813766 C93.5768229,0.924813766 94.8117274,2.73390162 94.8117274,4.76400495 C94.8117274,6.22108757 94.0563784,7.32378329 93.1199626,7.76629057 C94.8329424,8.40552066 95.4960312,9.59824208 95.4960312,11.3201622 C95.4960312,14.0128356 93.8274547,15.7781014 90.537172,15.7781014 L86.0105046,15.7781014 Z M87.3356958,6.99368907 L90.1242216,6.99368907 C91.565848,6.99368907 92.1588785,6.19965287 92.1588785,5.09552816 C92.1588785,3.94853406 91.565848,3.22023092 90.1242216,3.22023092 L87.3356958,3.22023092 L87.3356958,6.99368907 Z M87.3356958,13.4817316 L90.537172,13.4817316 C92.1588785,13.4817316 92.7997657,12.6443497 92.7997657,11.3201622 C92.7997657,9.97263468 92.0458967,9.15621114 90.537172,9.15621114 L87.3356958,9.15621114 L87.3356958,13.4817316 Z" id="Fill-13" fill="#2fbd68"></path>
                        <path d="M103.840394,2.9101424 C101.943881,2.9101424 101.234908,3.77134062 101.234908,4.65397355 C101.234908,7.54622773 109.578284,6.19965287 109.578284,11.7164658 C109.578284,14.4096155 107.612699,16.085332 103.840394,16.085332 C101.119953,16.085332 98.9486327,14.7835318 98.0571137,13.3936112 C97.9426518,13.2173704 97.8745668,12.996355 97.8745668,12.7762922 C97.8745668,12.1141984 98.423194,11.5835707 99.0852962,11.5835707 C99.5890267,11.5835707 99.8633403,11.8488846 100.091277,12.0699 C101.052361,12.996355 102.263584,13.7465691 103.840394,13.7465691 C105.920934,13.7465691 106.926915,13.085428 106.926915,11.7164658 C106.926915,8.49411737 98.5825523,9.97263468 98.5825523,4.65397355 C98.5825523,2.46954043 100.206726,0.616154225 103.840394,0.616154225 C106.126669,0.616154225 108.115442,1.43210144 109.03015,2.6886506 C109.1678,2.88823139 109.25858,3.13115788 109.25858,3.39647172 C109.25858,4.03570181 108.709953,4.5668058 108.024169,4.5668058 C107.703972,4.5668058 107.384762,4.38913603 107.040883,4.08000016 C106.332404,3.41838273 105.143877,2.9101424 103.840394,2.9101424" id="Fill-14" fill="#2fbd68"></path>
                    </g>
                    <g id="Group-2" transform="translate(0.573695, 0.000000)">
                        <path d="M12.0633779,18.5075039 C12.396565,18.9022536 13.7231895,19.5391945 14.2353969,19.549804 L11.2770566,29.135014 C10.3913196,30.9869351 5.89743754,28.8317263 6.74283197,26.9611468 L12.0633779,18.5075039" id="Fill-1" fill="#DCF6E7"></path>
                        <path d="M15.8584678,12.2350449 C14.8834006,11.7733451 14.4619641,10.596413 14.9165392,9.60569744 C15.3714745,8.61644525 16.5302448,8.18876928 17.5045917,8.64973739 C18.4792987,9.11180305 18.900375,10.2887351 18.4457999,11.278719 C17.9912248,12.2687029 16.8320942,12.6967447 15.8584678,12.2350449" id="Fill-8" fill="#DCF6E7"></path>
                        <path d="M17.1123315,11.5176176 C17.0165177,11.4715208 16.9916638,11.319694 17.0575808,11.1770134 L17.4779367,10.2631258 C17.5427731,10.1204452 17.6735265,10.0421538 17.7697004,10.087153 L21.4217901,11.8187102 C21.5176038,11.8637095 21.5417374,12.0159022 21.4765408,12.1571194 L21.0561848,13.0721045 C20.9909882,13.215151 20.860595,13.2938082 20.7647813,13.2488089 L17.1123315,11.5176176" id="Fill-9" fill="#DCF6E7"></path>
                        <path d="M17.6605592,9.74142695 C17.5993248,9.87532722 17.462448,9.94264318 17.355468,9.8914245 L16.6646002,9.56435666 C16.55726,9.51350383 16.5194388,9.36350626 16.5817537,9.22997185 L18.9299116,4.11651843 C18.9918663,3.98225231 19.1283829,3.91493635 19.2360834,3.96578918 L19.9273113,4.29358872 C20.0342914,4.34444155 20.0713922,4.49407327 20.0101578,4.62870522 L17.6605592,9.74142695" id="Fill-10" fill="#DCF6E7"></path>
                        <path d="M16.6674818,20.7596624 C13.9533586,20.7596624 11.402407,19.6862652 9.48324995,17.7370286 C9.12737021,17.3763028 9.12737021,16.7916781 9.48324995,16.4309523 C9.83804906,16.0716899 10.4132919,16.0716899 10.7684512,16.4309523 C12.3439754,18.0319019 14.4389111,18.9128632 16.6674818,18.9128632 C21.2672633,18.9128632 25.0101238,15.1124372 25.0101238,10.4401961 C25.0101238,5.76832084 21.2672633,1.96716313 16.6674818,1.96716313 C16.1657203,1.96716313 15.7586918,1.55302353 15.7586918,1.04339767 C15.7586918,0.533771808 16.1657203,0.120729744 16.6674818,0.120729744 C22.2700661,0.120729744 26.8277039,4.74943496 26.8277039,10.4401961 C26.8277039,16.1302255 22.2700661,20.7596624 16.6674818,20.7596624" id="Fill-15" fill="#2fbd68"></path>
                        <path d="M13.169919,1.03278808 C13.169919,1.54314564 12.7628905,1.95582185 12.2611289,1.95582185 L1.09486224,1.95582185 C0.592740444,1.95582185 0.185712013,1.54314564 0.185712013,1.03278808 C0.185712013,0.52243053 0.592740444,0.110486008 1.09486224,0.110486008 L12.2611289,0.110486008 C12.7628905,0.110486008 13.169919,0.52243053 13.169919,1.03278808" id="Fill-16" fill="#2fbd68"></path>
                        <path d="M9.34385171,6.3079462 C9.34385171,6.81830375 8.93610287,7.23134582 8.43506168,7.23134582 L2.54359529,7.23134582 C2.0414735,7.23134582 1.63444507,6.81830375 1.63444507,6.3079462 C1.63444507,5.79832033 2.0414735,5.38491243 2.54359529,5.38491243 L8.43506168,5.38491243 C8.93610287,5.38491243 9.34385171,5.79832033 9.34385171,6.3079462" id="Fill-17" fill="#2fbd68"></path>
                        <path d="M8.51394595,11.5827385 C8.51394595,12.093096 8.10691753,12.5057722 7.60443553,12.5057722 L4.69940518,12.5057722 C4.19728337,12.5057722 3.79061515,12.093096 3.79061515,11.5827385 C3.79061515,11.0731126 4.19728337,10.6600706 4.69940518,10.6600706 L7.60443553,10.6600706 C8.10691753,10.6600706 8.51394595,11.0731126 8.51394595,11.5827385" id="Fill-18" fill="#2fbd68"></path>
                    </g>
                </g>
            </g>
        </g>
    </g>
</svg>