<svg width="100%" height="40px" viewBox="0 0 150 40" version="1.1" xmlns="http://www.w3.org/2000/svg" xmlns:xlink="http://www.w3.org/1999/xlink" xml:space="preserve" xmlns:serif="http://www.serif.com/" style="fill-rule:evenodd;clip-rule:evenodd;stroke-linejoin:round;stroke-miterlimit:2;">
    <g transform="matrix(0.208978,0,0,0.208978,5.40923,-5.9625)">
     
        <g clip-path="url(#_clip1)">
       
            <g clip-path="url(#_clip2)">
                <path d="M622.074,29.297L23.925,29.297C10.766,29.297 0,40.064 0,53.223L0,196.778C0,209.938 10.766,220.704 23.925,220.704L622.074,220.704C635.233,220.704 646,209.938 646,196.778L646,53.223C646,40.064 635.233,29.297 622.074,29.297ZM622.074,33.125C633.157,33.125 642.172,42.141 642.172,53.223L642.172,196.778C642.172,207.861 633.157,216.876 622.074,216.876L23.925,216.876C12.843,216.876 3.828,207.861 3.828,196.778L3.828,53.223C3.828,42.141 12.843,33.125 23.925,33.125L622.074,33.125Z" style="fill-rule:nonzero;"/>
                <path d="M511.709,172.852L520.638,172.852L520.638,113.033L511.709,113.033L511.709,172.852ZM592.133,134.58L581.898,160.516L581.591,160.516L570.968,134.58L561.35,134.58L577.28,170.828L568.198,190.993L577.51,190.993L602.062,134.58L592.133,134.58ZM541.496,166.057C538.568,166.057 534.491,164.593 534.491,160.975C534.491,156.358 539.568,154.592 543.956,154.592C547.88,154.592 549.727,155.439 552.115,156.592C551.421,162.133 546.65,166.057 541.496,166.057ZM542.573,133.274C536.108,133.274 529.409,136.121 526.638,142.428L534.567,145.739C536.261,142.428 539.415,141.351 542.726,141.351C547.344,141.351 552.038,144.122 552.115,149.046L552.115,149.663C550.497,148.74 547.033,147.357 542.803,147.357C534.261,147.357 525.562,152.051 525.562,160.822C525.562,168.828 532.567,173.982 540.415,173.982C546.42,173.982 549.727,171.292 551.808,168.134L552.115,168.134L552.115,172.752L560.733,172.752L560.733,149.816C560.733,139.198 552.809,133.274 542.573,133.274ZM487.39,141.863L474.69,141.863L474.69,121.354L487.39,121.354C494.066,121.354 497.855,126.886 497.855,131.609C497.855,136.246 494.066,141.863 487.39,141.863ZM487.161,113.033L465.766,113.033L465.766,172.852L474.69,172.852L474.69,150.19L487.161,150.19C497.056,150.19 506.785,143.021 506.785,131.609C506.785,120.196 497.056,113.033 487.161,113.033ZM370.493,166.067C364.325,166.067 359.162,160.904 359.162,153.812C359.162,146.644 364.325,141.399 370.493,141.399C376.585,141.399 381.36,146.644 381.36,153.812C381.36,160.904 376.585,166.067 370.493,166.067ZM380.743,137.93L380.437,137.93C378.432,135.542 374.58,133.379 369.723,133.379C359.544,133.379 350.218,142.323 350.218,153.812C350.218,165.22 359.544,174.087 369.723,174.087C374.58,174.087 378.432,171.929 380.437,169.46L380.743,169.46L380.743,172.388C380.743,180.178 376.585,184.337 369.876,184.337C364.401,184.337 361.009,180.408 359.621,177.092L351.836,180.332C354.07,185.729 360.009,192.357 369.876,192.357C380.36,192.357 389.227,186.189 389.227,171.158L389.227,134.614L380.743,134.614L380.743,137.93ZM395.39,172.852L404.334,172.852L404.334,113.028L395.39,113.028L395.39,172.852ZM417.517,153.118C417.287,145.251 423.609,141.246 428.154,141.246C431.705,141.246 434.71,143.017 435.71,145.562L417.517,153.118ZM445.271,146.333C443.572,141.782 438.409,133.379 427.848,133.379C417.364,133.379 408.655,141.629 408.655,153.735C408.655,165.143 417.287,174.087 428.848,174.087C438.179,174.087 443.572,168.383 445.812,165.067L438.873,160.439C436.557,163.832 433.399,166.067 428.848,166.067C424.302,166.067 421.063,163.985 418.981,159.904L446.195,148.644L445.271,146.333ZM228.464,139.629L228.464,148.261L249.122,148.261C248.504,153.118 246.887,156.664 244.422,159.128C241.413,162.138 236.709,165.45 228.464,165.45C215.74,165.45 205.796,155.2 205.796,142.476C205.796,129.757 215.74,119.507 228.464,119.507C235.326,119.507 240.336,122.201 244.035,125.67L250.126,119.584C244.958,114.65 238.101,110.87 228.464,110.87C211.041,110.87 196.394,125.058 196.394,142.476C196.394,159.904 211.041,174.087 228.464,174.087C237.867,174.087 244.958,171 250.509,165.22C256.213,159.516 257.989,151.501 257.989,145.022C257.989,143.017 257.834,141.17 257.523,139.629L228.464,139.629ZM281.474,166.067C275.311,166.067 269.99,160.98 269.99,153.735C269.99,146.409 275.311,141.399 281.474,141.399C287.642,141.399 292.963,146.409 292.963,153.735C292.963,160.98 287.642,166.067 281.474,166.067ZM281.474,133.379C270.219,133.379 261.045,141.94 261.045,153.735C261.045,165.45 270.219,174.087 281.474,174.087C292.729,174.087 301.907,165.45 301.907,153.735C301.907,141.94 292.729,133.379 281.474,133.379ZM326.043,166.067C319.875,166.067 314.554,160.98 314.554,153.735C314.554,146.409 319.875,141.399 326.043,141.399C332.212,141.399 337.528,146.409 337.528,153.735C337.528,160.98 332.212,166.067 326.043,166.067ZM326.043,133.379C314.789,133.379 305.615,141.94 305.615,153.735C305.615,165.45 314.789,174.087 326.043,174.087C337.298,174.087 346.471,165.45 346.471,153.735C346.471,141.94 337.298,133.379 326.043,133.379Z" style="fill-rule:nonzero;"/>
                <path d="M99.135,122.244L48.187,176.317C48.192,176.326 48.192,176.341 48.197,176.35C49.762,182.222 55.121,186.543 61.485,186.543C64.031,186.543 66.419,185.854 68.467,184.648L68.63,184.552L125.976,151.463L99.135,122.244Z" style="fill:rgb(235,67,53);fill-rule:nonzero;"/>
                <path d="M150.676,113.037L150.629,113.003L125.87,98.653L97.977,123.473L125.97,151.457L150.595,137.25C154.911,134.914 157.845,130.364 157.845,125.119C157.845,119.903 154.954,115.376 150.676,113.037Z" style="fill:rgb(250,188,19);fill-rule:nonzero;"/>
                <path d="M48.186,73.689C47.88,74.819 47.717,76.005 47.717,77.23L47.717,172.781C47.717,174.006 47.88,175.192 48.191,176.317L100.886,123.627L48.186,73.689Z" style="fill:rgb(84,125,191);fill-rule:nonzero;"/>
                <path d="M99.511,125.005L125.878,98.644L68.599,65.434C66.517,64.186 64.086,63.468 61.488,63.468C55.124,63.468 49.755,67.798 48.19,73.675C48.19,73.679 48.185,73.684 48.185,73.689L99.511,125.005Z" style="fill:rgb(48,168,81);fill-rule:nonzero;"/>
            </g>
        </g>
    </g>
    <g transform="matrix(0.208978,0,0,0.208978,5.40923,-6.43625)">
        <path d="M210.269,76.241C211.713,76.241 212.927,75.783 213.913,74.867C214.897,73.951 215.39,72.8 215.39,71.412C215.39,70.135 214.939,69.018 214.037,68.061C213.136,67.103 211.935,66.624 210.436,66.624L204.524,66.624L204.524,76.241L210.269,76.241ZM199.945,62.336L210.394,62.336C212.198,62.336 213.829,62.725 215.286,63.502C216.743,64.279 217.894,65.362 218.742,66.749C219.588,68.137 220.012,69.705 220.012,71.454C220.012,73.452 219.366,75.221 218.076,76.761C216.785,78.302 215.168,79.336 213.225,79.863L213.183,80.071L221.386,91.894L221.386,92.144L216.099,92.144L208.146,80.446L204.524,80.446L204.524,92.144L199.945,92.144L199.945,62.336Z" style="fill-rule:nonzero;"/>
        <path d="M245.177,87.044C246.828,86.087 248.133,84.754 249.09,83.048C250.048,81.341 250.526,79.405 250.526,77.24C250.526,75.075 250.048,73.14 249.09,71.433C248.133,69.726 246.828,68.394 245.177,67.436C243.525,66.478 241.7,65.999 239.702,65.999C237.704,65.999 235.879,66.478 234.227,67.436C232.576,68.394 231.272,69.726 230.314,71.433C229.357,73.14 228.878,75.075 228.878,77.24C228.878,79.405 229.357,81.341 230.314,83.048C231.272,84.754 232.576,86.087 234.227,87.044C235.879,88.002 237.704,88.48 239.702,88.48C241.7,88.48 243.525,88.002 245.177,87.044ZM231.834,90.728C229.474,89.341 227.622,87.46 226.276,85.087C224.93,82.714 224.257,80.099 224.257,77.24C224.257,74.382 224.93,71.766 226.276,69.393C227.622,67.019 229.474,65.14 231.834,63.751C234.192,62.364 236.815,61.67 239.702,61.67C242.589,61.67 245.204,62.364 247.55,63.751C249.894,65.14 251.74,67.019 253.087,69.393C254.432,71.766 255.105,74.382 255.105,77.24C255.105,80.099 254.432,82.714 253.087,85.087C251.74,87.46 249.894,89.341 247.55,90.728C245.204,92.117 242.589,92.81 239.702,92.81C236.815,92.81 234.192,92.117 231.834,90.728Z" style="fill-rule:nonzero;"/>
        <path d="M258.186,87.481L273.798,66.666L258.851,66.666L258.851,62.336L279.085,62.336L279.085,66.999L263.598,87.814L279.252,87.814L279.252,92.144L258.186,92.144L258.186,87.481Z" style="fill-rule:nonzero;"/>
        <path d="M286.579,90.957C284.886,89.723 283.691,87.995 282.998,85.774L287.245,84.026C287.688,85.553 288.369,86.677 289.285,87.398C290.2,88.12 291.283,88.48 292.532,88.48C294.003,88.48 295.168,87.981 296.029,86.982C296.889,85.982 297.319,84.65 297.319,82.985L297.319,62.336L301.899,62.336L301.899,82.819C301.899,84.928 301.496,86.732 300.691,88.231C299.887,89.729 298.776,90.868 297.361,91.644C295.945,92.421 294.336,92.81 292.532,92.81C290.256,92.81 288.271,92.192 286.579,90.957Z" style="fill-rule:nonzero;"/>
        <path d="M309.142,62.336L327.211,62.336L327.211,66.666L313.722,66.666L313.722,75.075L325.878,75.075L325.878,79.405L313.722,79.405L313.722,87.814L327.211,87.814L327.211,92.144L309.142,92.144L309.142,62.336Z" style="fill-rule:nonzero;"/>
        <path d="M343.029,87.814C346.416,87.814 349.046,86.878 350.919,85.004C352.792,83.131 353.728,80.543 353.728,77.24C353.728,73.937 352.792,71.349 350.919,69.476C349.046,67.603 346.416,66.666 343.029,66.666L338.2,66.666L338.2,87.814L343.029,87.814ZM337.618,54.676L337.618,54.426L341.905,54.426L343.82,56.966L344.237,56.966L346.193,54.426L350.523,54.426L350.523,54.676L346.027,59.713L342.072,59.713L337.618,54.676ZM333.621,62.336L343.154,62.336C346.235,62.336 348.921,62.96 351.21,64.209C353.5,65.458 355.262,67.214 356.497,69.476C357.732,71.738 358.349,74.326 358.349,77.24C358.349,80.154 357.732,82.743 356.497,85.004C355.262,87.267 353.5,89.021 351.21,90.27C348.921,91.519 346.235,92.144 343.154,92.144L333.621,92.144L333.621,62.336Z" style="fill-rule:nonzero;"/>
        <path d="M369.215,66.666L360.847,66.666L360.847,62.336L382.12,62.336L382.12,66.666L373.794,66.666L373.794,92.144L369.215,92.144L369.215,66.666Z" style="fill-rule:nonzero;"/>
        <path d="M386.865,62.336L404.933,62.336L404.933,66.666L391.444,66.666L391.444,75.075L403.6,75.075L403.6,79.405L391.444,79.405L391.444,87.814L404.933,87.814L404.933,92.144L386.865,92.144L386.865,62.336Z" style="fill-rule:nonzero;"/>
        <path d="M426.455,66.666L418.087,66.666L418.087,62.336L439.36,62.336L439.36,66.666L431.034,66.666L431.034,92.144L426.455,92.144L426.455,66.666Z" style="fill-rule:nonzero;"/>
        <path d="M462.777,87.044C464.429,86.087 465.733,84.754 466.69,83.048C467.648,81.341 468.127,79.405 468.127,77.24C468.127,75.075 467.648,73.14 466.69,71.433C465.733,69.726 464.429,68.394 462.777,67.436C461.126,66.478 459.301,65.999 457.303,65.999C455.305,65.999 453.479,66.478 451.828,67.436C450.177,68.394 448.873,69.726 447.915,71.433C446.958,73.14 446.478,75.075 446.478,77.24C446.478,79.405 446.958,81.341 447.915,83.048C448.873,84.754 450.177,86.087 451.828,87.044C453.479,88.002 455.305,88.48 457.303,88.48C459.301,88.48 461.126,88.002 462.777,87.044ZM449.434,90.728C447.075,89.341 445.223,87.46 443.877,85.087C442.53,82.714 441.857,80.099 441.857,77.24C441.857,74.382 442.53,71.766 443.877,69.393C445.223,67.019 447.075,65.14 449.434,63.751C451.793,62.364 454.416,61.67 457.303,61.67C460.189,61.67 462.805,62.364 465.15,63.751C467.495,65.14 469.341,67.019 470.687,69.393C472.033,71.766 472.706,74.382 472.706,77.24C472.706,80.099 472.033,82.714 470.687,85.087C469.341,87.46 467.495,89.341 465.15,90.728C462.805,92.117 460.189,92.81 457.303,92.81C454.416,92.81 451.793,92.117 449.434,90.728Z" style="fill-rule:nonzero;"/>
    </g>
</svg>