<?xml version="1.0" encoding="UTF-8"?>
<svg width="48px" height="48px" viewBox="0 0 48 48" version="1.1" xmlns="http://www.w3.org/2000/svg" xmlns:xlink="http://www.w3.org/1999/xlink">
    <!-- Generator: Sketch 52.3 (67297) - http://www.bohemiancoding.com/sketch -->
    <title>Loading</title>
    <desc>Created with Sketch.</desc>
    <g id="Hodnoceni" stroke="none" stroke-width="1" fill="none" fill-rule="evenodd">
        <g id="2-1-2-Hodnoceni---Loading" transform="translate(-905.000000, -303.000000)" fill="#57CE87">
            <g id="Loading" transform="translate(465.000000, 215.000000)">
                <g transform="translate(440.000000, 88.000000)" id="Group-26">
                    <g>
                        <path d="M24,12.3428571 L24,12.3428571 C22.8685714,12.3428571 21.9428571,11.4171429 21.9428571,10.2857143 L21.9428571,2.05714286 C21.9428571,0.925714286 22.8685714,0 24,0 L24,0 C25.1314286,0 26.0571429,0.925714286 26.0571429,2.05714286 L26.0571429,10.2857143 C26.0571429,11.4171429 25.1314286,12.3428571 24,12.3428571" id="Fill-2" opacity="0.65"></path>
                        <path d="M29.8285714,13.90464 L29.8285714,13.90464 C28.8486857,13.3389257 28.5099429,12.0744686 29.0756571,11.0945829 L33.1899429,3.96864 C33.7556571,2.98875429 35.0201143,2.65001143 36,3.21572571 L36,3.21572571 C36.9798857,3.78144 37.3186286,5.04589714 36.7529143,6.02578286 L32.6386286,13.1517257 C32.0729143,14.1316114 30.8084571,14.4703543 29.8285714,13.90464" id="Fill-4" opacity="0.75"></path>
                        <path d="M34.09536,18.1714286 L34.09536,18.1714286 C33.5296457,17.1915429 33.8683886,15.9270857 34.8482743,15.3613714 L41.9742171,11.2470857 C42.9541029,10.6813714 44.21856,11.0201143 44.7842743,12 L44.7842743,12 C45.3499886,12.9798857 45.0112457,14.2443429 44.03136,14.8100571 L36.9054171,18.9243429 C35.9255314,19.4900571 34.6610743,19.1513143 34.09536,18.1714286" id="Fill-6" opacity="0.85"></path>
                        <path d="M35.6571429,24 L35.6571429,24 C35.6571429,22.8685714 36.5828571,21.9428571 37.7142857,21.9428571 L45.9428571,21.9428571 C47.0742857,21.9428571 48,22.8685714 48,24 L48,24 C48,25.1314286 47.0742857,26.0571429 45.9428571,26.0571429 L37.7142857,26.0571429 C36.5828571,26.0571429 35.6571429,25.1314286 35.6571429,24" id="Fill-8" opacity="0.9"></path>
                        <path d="M34.09536,29.8285714 L34.09536,29.8285714 C34.6610743,28.8486857 35.9255314,28.5099429 36.9054171,29.0756571 L44.03136,33.1899429 C45.0112457,33.7556571 45.3499886,35.0201143 44.7842743,36 L44.7842743,36 C44.21856,36.9798857 42.9541029,37.3186286 41.9742171,36.7529143 L34.8482743,32.6386286 C33.8683886,32.0729143 33.5296457,30.8084571 34.09536,29.8285714" id="Fill-10" opacity="0.2"></path>
                        <path d="M29.8285714,34.09536 L29.8285714,34.09536 C30.8084571,33.5296457 32.0729143,33.8683886 32.6386286,34.8482743 L36.7529143,41.9742171 C37.3186286,42.9541029 36.9798857,44.21856 36,44.7842743 L36,44.7842743 C35.0201143,45.3499886 33.7556571,45.0112457 33.1899429,44.03136 L29.0756571,36.9054171 C28.5099429,35.9255314 28.8486857,34.6610743 29.8285714,34.09536" id="Fill-12" opacity="0.25"></path>
                        <path d="M24,35.6571429 L24,35.6571429 C25.1314286,35.6571429 26.0571429,36.5828571 26.0571429,37.7142857 L26.0571429,45.9428571 C26.0571429,47.0742857 25.1314286,48 24,48 L24,48 C22.8685714,48 21.9428571,47.0742857 21.9428571,45.9428571 L21.9428571,37.7142857 C21.9428571,36.5828571 22.8685714,35.6571429 24,35.6571429" id="Fill-14" opacity="0.3"></path>
                        <path d="M18.1714286,34.09536 L18.1714286,34.09536 C19.1513143,34.6610743 19.4900571,35.9255314 18.9243429,36.9054171 L14.8100571,44.03136 C14.2443429,45.0112457 12.9798857,45.3499886 12,44.7842743 L12,44.7842743 C11.0201143,44.21856 10.6813714,42.9541029 11.2470857,41.9742171 L15.3613714,34.8482743 C15.9270857,33.8683886 17.1915429,33.5296457 18.1714286,34.09536" id="Fill-16" opacity="0.35"></path>
                        <path d="M13.90464,29.8285714 L13.90464,29.8285714 C14.4703543,30.8084571 14.1316114,32.0729143 13.1517257,32.6386286 L6.02578286,36.7529143 C5.04589714,37.3186286 3.78144,36.9798857 3.21572571,36 L3.21572571,36 C2.65001143,35.0201143 2.98875429,33.7556571 3.96864,33.1899429 L11.0945829,29.0756571 C12.0744686,28.5099429 13.3389257,28.8486857 13.90464,29.8285714" id="Fill-18" opacity="0.4"></path>
                        <path d="M12.3428571,24 L12.3428571,24 C12.3428571,25.1314286 11.4171429,26.0571429 10.2857143,26.0571429 L2.05714286,26.0571429 C0.925714286,26.0571429 0,25.1314286 0,24 L0,24 C0,22.8685714 0.925714286,21.9428571 2.05714286,21.9428571 L10.2857143,21.9428571 C11.4171429,21.9428571 12.3428571,22.8685714 12.3428571,24" id="Fill-20" opacity="0.45"></path>
                        <path d="M13.90464,18.1714286 L13.90464,18.1714286 C13.3389257,19.1513143 12.0744686,19.4900571 11.0945829,18.9243429 L3.96864,14.8100571 C2.98875429,14.2443429 2.65001143,12.9798857 3.21572571,12 L3.21572571,12 C3.78144,11.0201143 5.04589714,10.6813714 6.02578286,11.2470857 L13.1517257,15.3613714 C14.1316114,15.9270857 14.4703543,17.1915429 13.90464,18.1714286" id="Fill-22" opacity="0.5"></path>
                        <path d="M18.1714286,13.90464 L18.1714286,13.90464 C17.1915429,14.4703543 15.9270857,14.1316114 15.3613714,13.1517257 L11.2470857,6.02578286 C10.6813714,5.04589714 11.0201143,3.78144 12,3.21572571 L12,3.21572571 C12.9798857,2.65001143 14.2443429,2.98875429 14.8100571,3.96864 L18.9243429,11.0945829 C19.4900571,12.0744686 19.1513143,13.3389257 18.1714286,13.90464" id="Fill-24" opacity="0.55"></path>
                    </g>
                </g>
            </g>
        </g>
    </g>
</svg>