<svg xmlns="http://www.w3.org/2000/svg" xmlns:xlink="http://www.w3.org/1999/xlink" style="isolation:isolate" viewBox="0 0 670 142" width="670" height="142"><g id="Artboard-3"><g id="Group-4"><g id="Imported-Layers"><g id="Group-3"><path d=" M 176.384 68.358 C 176.384 43.971 188.531 32.246 208.487 32.246 C 228.449 32.246 240.589 43.971 240.589 68.358 C 240.589 85.741 234.313 96.76 223.514 101.588 C 226.184 102.722 228.964 104.472 230.918 106.937 C 231.637 107.868 231.946 108.689 231.946 109.511 C 231.946 111.365 230.403 112.906 228.449 112.906 C 227.523 112.906 226.699 112.6 225.877 111.771 C 221.349 106.735 218.367 104.363 208.487 104.363 C 188.531 104.363 176.384 92.536 176.384 68.358 L 176.384 68.358 Z  M 183.59 68.358 C 183.59 88.422 192.748 97.988 208.487 97.988 C 224.229 97.988 233.387 88.422 233.387 68.358 C 233.387 48.188 224.229 38.622 208.487 38.622 C 192.748 38.622 183.59 48.188 183.59 68.358 L 183.59 68.358 Z " fill-rule="evenodd" fill="rgb(0,50,72)"/><path d=" M 261.476 58.687 L 261.476 85.541 C 261.476 92.225 263.639 97.988 274.029 97.988 C 284.419 97.988 286.585 92.225 286.585 85.541 L 286.585 58.687 C 286.585 56.835 288.128 55.394 289.978 55.394 C 291.725 55.394 293.169 56.835 293.169 58.687 L 293.169 85.541 C 293.169 95.314 289.978 104.268 274.029 104.268 C 258.185 104.268 254.892 95.314 254.892 85.541 L 254.892 58.687 C 254.892 56.835 256.331 55.394 258.185 55.394 C 259.933 55.394 261.476 56.835 261.476 58.687 Z " fill-rule="evenodd" fill="rgb(0,50,72)"/><path d=" M 308.908 41.813 C 308.908 38.826 310.347 37.694 312.817 37.694 C 315.288 37.694 316.73 38.826 316.73 41.813 C 316.73 44.28 315.288 45.719 312.817 45.719 C 310.347 45.719 308.908 44.28 308.908 41.813 L 308.908 41.813 Z  M 316.108 100.46 C 316.108 102.314 314.671 103.748 312.817 103.748 C 310.967 103.748 309.526 102.314 309.526 100.46 L 309.526 58.687 C 309.526 56.835 310.967 55.394 312.817 55.394 C 314.671 55.394 316.108 56.835 316.108 58.687 L 316.108 100.46 L 316.108 100.46 Z " fill-rule="evenodd" fill="rgb(0,50,72)"/><path d=" M 351.709 54.775 C 360.869 54.775 365.91 59.609 367.555 61.876 C 368.068 62.598 368.277 63.106 368.277 63.828 C 368.277 65.58 366.933 66.815 365.29 66.815 C 364.26 66.815 363.542 66.402 362.819 65.58 C 361.28 63.828 358.502 60.748 351.709 60.748 C 342.24 60.748 337.199 66.815 337.199 79.47 C 337.199 92.33 342.24 98.294 351.709 98.294 C 357.678 98.294 361.28 95.621 363.645 93.875 C 364.364 93.356 364.877 93.154 365.603 93.154 C 367.249 93.154 368.586 94.493 368.586 96.14 C 368.586 97.064 368.277 97.786 367.249 98.714 C 364.984 100.559 360.043 104.268 351.709 104.268 C 338.436 104.268 330.513 96.345 330.513 79.47 C 330.513 62.598 338.436 54.775 351.709 54.775 Z " fill-rule="evenodd" fill="rgb(0,50,72)"/><path d=" M 413.136 102.207 L 394.922 78.853 L 388.649 83.894 L 388.649 100.46 C 388.649 102.314 387.203 103.748 385.356 103.748 C 383.504 103.748 382.062 102.314 382.062 100.46 L 382.062 32.966 C 382.062 31.112 383.504 29.673 385.356 29.673 C 387.203 29.673 388.649 31.112 388.649 32.966 L 388.649 76.075 L 412.929 56.218 C 413.753 55.496 414.575 55.394 415.192 55.394 C 417.044 55.394 418.49 56.835 418.49 58.687 C 418.49 59.507 418.176 60.537 417.148 61.361 L 400.276 74.84 L 418.585 98.403 C 419.207 99.12 419.309 99.84 419.309 100.46 C 419.309 102.314 417.868 103.748 416.016 103.748 C 414.886 103.748 413.96 103.24 413.136 102.207 Z " fill-rule="evenodd" fill="rgb(0,50,72)"/><path d=" M 452.334 38.826 C 452.334 35.533 455.012 32.864 458.301 32.864 C 461.599 32.864 464.268 35.533 464.268 38.826 L 464.268 81.324 C 464.268 94.493 458.503 104.268 442.765 104.268 C 438.653 104.268 433.406 103.24 430.521 101.488 C 428.773 100.559 427.643 98.918 427.643 96.76 C 427.643 93.773 430.012 91.408 432.992 91.408 C 433.921 91.408 434.534 91.61 435.36 91.919 C 437.933 92.945 440.609 93.46 442.765 93.46 C 449.66 93.46 452.334 88.322 452.334 81.324 L 452.334 38.826 Z " fill-rule="evenodd" fill="rgb(87,206,135)"/><path d=" M 478.058 68.358 C 478.058 43.971 489.889 32.246 510.677 32.246 C 531.457 32.246 543.289 43.971 543.289 68.358 C 543.289 92.434 531.457 104.363 510.677 104.363 C 489.889 104.363 478.058 92.434 478.058 68.358 L 478.058 68.358 Z  M 490.405 68.358 C 490.405 85.337 497.095 93.669 510.677 93.669 C 524.256 93.669 530.942 85.337 530.942 68.358 C 530.942 51.275 524.256 42.941 510.677 42.941 C 497.095 42.941 490.405 51.275 490.405 68.358 L 490.405 68.358 Z " fill-rule="evenodd" fill="rgb(87,206,135)"/><path d=" M 563.046 102.931 C 559.75 102.931 557.077 100.255 557.077 96.962 L 557.077 39.654 C 557.077 36.361 559.75 33.685 563.046 33.685 L 581.561 33.685 C 597.101 33.685 602.659 42.119 602.659 51.584 C 602.659 58.376 599.259 63.517 595.045 65.58 C 602.755 68.56 605.739 74.121 605.739 82.148 C 605.739 94.701 598.229 102.931 583.42 102.931 L 563.046 102.931 L 563.046 102.931 Z  M 569.01 61.978 L 581.561 61.978 C 588.05 61.978 590.719 58.277 590.719 53.129 C 590.719 47.782 588.05 44.387 581.561 44.387 L 569.01 44.387 L 569.01 61.978 L 569.01 61.978 Z  M 569.01 92.225 L 583.42 92.225 C 590.719 92.225 593.604 88.322 593.604 82.148 C 593.604 75.866 590.21 72.06 583.42 72.06 L 569.01 72.06 L 569.01 92.225 L 569.01 92.225 Z " fill-rule="evenodd" fill="rgb(87,206,135)"/><path d=" M 643.297 42.941 C 634.761 42.941 631.57 46.956 631.57 51.071 C 631.57 64.554 669.123 58.277 669.123 83.996 C 669.123 96.551 660.276 104.363 643.297 104.363 C 631.052 104.363 621.279 98.294 617.267 91.815 C 616.751 90.993 616.445 89.963 616.445 88.937 C 616.445 85.85 618.914 83.376 621.894 83.376 C 624.162 83.376 625.396 84.613 626.422 85.644 C 630.748 89.963 636.2 93.46 643.297 93.46 C 652.661 93.46 657.189 90.378 657.189 83.996 C 657.189 68.973 619.631 75.866 619.631 51.071 C 619.631 40.887 626.942 32.246 643.297 32.246 C 653.587 32.246 662.538 36.05 666.655 41.908 C 667.275 42.839 667.684 43.971 667.684 45.208 C 667.684 48.188 665.214 50.664 662.128 50.664 C 660.686 50.664 659.25 49.836 657.702 48.395 C 654.513 45.31 649.164 42.941 643.297 42.941 Z " fill-rule="evenodd" fill="rgb(87,206,135)"/></g><g id="Group-2"><path d=" M 57.995 87.602 C 59.597 89.471 65.975 92.486 68.437 92.536 L 54.215 137.906 C 49.956 146.671 28.352 136.47 32.416 127.616 L 57.995 87.602 Z " fill-rule="evenodd" fill="rgb(0,50,72)"/><path d=" M 76.24 57.913 C 71.552 55.727 69.526 50.156 71.712 45.467 C 73.899 40.785 79.469 38.76 84.154 40.942 C 88.84 43.129 90.864 48.7 88.679 53.386 C 86.493 58.072 80.921 60.098 76.24 57.913 Z " fill-rule="evenodd" fill="rgb(0,50,72)"/><path d=" M 82.268 54.517 C 81.807 54.299 81.688 53.58 82.005 52.905 L 84.026 48.579 C 84.337 47.903 84.966 47.533 85.428 47.746 L 102.986 55.942 C 103.446 56.155 103.562 56.875 103.249 57.544 L 101.228 61.875 C 100.915 62.552 100.288 62.924 99.827 62.711 L 82.268 54.517 Z " fill-rule="evenodd" fill="rgb(0,50,72)"/><path d=" M 84.903 46.109 C 84.609 46.743 83.951 47.062 83.437 46.819 L 80.115 45.271 C 79.599 45.031 79.418 44.321 79.717 43.689 L 91.006 19.485 C 91.304 18.849 91.96 18.531 92.478 18.771 L 95.801 20.323 C 96.315 20.564 96.494 21.272 96.199 21.909 L 84.903 46.109 Z " fill-rule="evenodd" fill="rgb(0,50,72)"/><path d=" M 80.129 98.262 C 67.081 98.262 54.817 93.182 45.591 83.955 C 43.88 82.248 43.88 79.481 45.591 77.773 C 47.297 76.073 50.062 76.073 51.77 77.773 C 59.344 85.351 69.415 89.521 80.129 89.521 C 102.243 89.521 120.237 71.532 120.237 49.417 C 120.237 27.303 102.243 9.311 80.129 9.311 C 77.717 9.311 75.76 7.351 75.76 4.939 C 75.76 2.527 77.717 0.571 80.129 0.571 C 107.064 0.571 128.975 22.481 128.975 49.417 C 128.975 76.35 107.064 98.262 80.129 98.262 Z " fill-rule="evenodd" fill="rgb(87,206,135)"/><path d=" M 63.315 4.889 C 63.315 7.304 61.358 9.258 58.946 9.258 L 5.264 9.258 C 2.85 9.258 0.893 7.304 0.893 4.889 C 0.893 2.473 2.85 0.523 5.264 0.523 L 58.946 0.523 C 61.358 0.523 63.315 2.473 63.315 4.889 Z " fill-rule="evenodd" fill="rgb(87,206,135)"/><path d=" M 44.921 29.858 C 44.921 32.273 42.96 34.228 40.552 34.228 L 12.228 34.228 C 9.814 34.228 7.858 32.273 7.858 29.858 C 7.858 27.445 9.814 25.489 12.228 25.489 L 40.552 25.489 C 42.96 25.489 44.921 27.445 44.921 29.858 Z " fill-rule="evenodd" fill="rgb(87,206,135)"/><path d=" M 40.931 54.825 C 40.931 57.241 38.974 59.194 36.558 59.194 L 22.592 59.194 C 20.179 59.194 18.223 57.241 18.223 54.825 C 18.223 52.413 20.179 50.458 22.592 50.458 L 36.558 50.458 C 38.974 50.458 40.931 52.413 40.931 54.825 Z " fill-rule="evenodd" fill="rgb(87,206,135)"/></g></g></g></g></svg>