<?xml version="1.0" encoding="UTF-8"?>
<svg width="72px" height="72px" viewBox="0 0 72 72" version="1.1" xmlns="http://www.w3.org/2000/svg" xmlns:xlink="http://www.w3.org/1999/xlink">
    <!-- Generator: Sketch 52.4 (67378) - http://www.bohemiancoding.com/sketch -->
    <title>Group</title>
    <desc>Created with Sketch.</desc>
    <g id="JB" stroke="none" stroke-width="1" fill="none" fill-rule="evenodd">
        <g id="1-1-7-Jednorazove-brigady" transform="translate(-512.000000, -480.000000)">
            <g id="Workers" transform="translate(512.000000, 153.000000)">
                <g id="2" transform="translate(0.000000, 327.000000)">
                    <g id="Group">
                        <circle id="Photo" fill-opacity="0.0981091486" fill="#668292" cx="36" cy="36" r="36"></circle>
                        <g id="Man" transform="translate(12.000000, 12.000000)">
                            <g>
                                <rect id="Rectangle-path" x="0" y="0" width="48" height="48"></rect>
                                <path d="M41.648,42.7226954 L39.504,42.7226954 L39.504,42.1217909 C39.4995851,38.0318516 36.187785,34.7186444 32.104,34.7186468 L31.456,34.7186468 L31.2,34.7186468 L31.48,34.2138869 C31.6229062,33.9659929 31.6229062,33.6605749 31.48,33.4126809 L30.328,31.4096657 C32.3253493,29.7006061 33.5128392,27.2289971 33.6,24.5994141 C35.458876,24.2959293 36.8395071,22.711361 36.888,20.8257335 L36.888,19.8082018 C36.853112,18.5412382 35.8011491,17.5414418 34.536,17.5728368 L33.6,17.5728368 L33.6,16.6995222 L34.816,16.6995222 C36.1504978,16.6241286 37.1940704,15.5183636 37.1940704,14.1797291 C37.1940704,12.8410947 36.1504978,11.7353296 34.816,11.659936 L32.8,11.659936 L32.8,7.49366445 C32.8008123,6.27984245 32.2161201,5.14038422 31.2302011,4.4344132 C30.244282,3.72844218 28.9785775,3.54291693 27.832,3.9363095 L25.232,4.80161205 C24.4331632,5.07388342 23.5668368,5.07388342 22.768,4.80161205 L20.176,3.9363095 C19.0284407,3.53968133 17.7601855,3.72362407 16.7721196,4.42999491 C15.7840536,5.13636574 15.198296,6.27786142 15.2,7.49366445 L15.2,11.659936 L13.192,11.659936 C11.8575022,11.7353296 10.8139296,12.8410947 10.8139296,14.1797291 C10.8139296,15.5183636 11.8575022,16.6241286 13.192,16.6995222 L14.4,16.6995222 L14.4,17.5728368 L13.464,17.5728368 C12.1988509,17.5414418 11.146888,18.5412382 11.112,19.8082018 L11.112,20.8257335 C11.1604929,22.711361 12.541124,24.2959293 14.4,24.5994141 C14.4873602,27.2249208 15.6716482,29.6930001 17.664,31.4016536 L16.512,33.4046688 C16.3690938,33.6525628 16.3690938,33.9579808 16.512,34.2058749 L16.8,34.7266588 L15.896,34.7266588 C11.812215,34.7266564 8.5004149,38.0398636 8.496,42.1298029 L8.496,42.7307075 L41.648,42.7226954 Z M14.4,22.912 C13.4355917,22.6535386 12.7515361,21.7976585 12.712,20.8 L12.712,19.784 C12.7458788,19.4022048 13.0820714,19.11966 13.464,19.152 L14.4,19.152 L14.4,22.912 Z M29.856,33.768 L27.384,38.296 L25.152,36.072 L29.088,32.448 L29.856,33.768 Z M34.536,19.152 C34.9179286,19.11966 35.2541212,19.4022048 35.288,19.784 L35.288,20.8 C35.2484639,21.7976585 34.5644083,22.6535386 33.6,22.912 L33.6,19.152 L34.536,19.152 Z M16.8,7.488 C16.7949454,6.79088809 17.1329356,6.13584506 17.704,5.736 C18.269729,5.32978932 18.9970645,5.22247753 19.656,5.448 L22.24,6.336 C23.3764262,6.72007407 24.6075738,6.72007407 25.744,6.336 L28.328,5.448 C28.9869355,5.22247753 29.714271,5.32978932 30.28,5.736 C30.8571351,6.13227207 31.2014242,6.78791824 31.2,7.488 L31.2000044,8.752 L16.7999441,8.752 L16.8,7.488 Z M16.8,10.352 L31.2,10.352 L31.2,11.648 L16.8,11.648 L16.8,10.352 Z M13.184,15.08 C12.7111635,15.0357634 12.3496971,14.6389013 12.3496971,14.164 C12.3496971,13.6890987 12.7111635,13.2922366 13.184,13.248 L34.784,13.248 C35.2568365,13.2922366 35.6183029,13.6890987 35.6183029,14.164 C35.6183029,14.6389013 35.2568365,15.0357634 34.784,15.08 L13.184,15.08 Z M16,24.288 L16,16.68 L32,16.68 L32,24.288 C32,28.706278 28.418278,32.288 24,32.288 C19.581722,32.288 16,28.706278 16,24.288 Z M24,33.712 C24.5007398,33.7114382 25.0007585,33.6740037 25.496,33.6 L24,34.96 L22.504,33.6 C22.9992415,33.6740037 23.4992602,33.7114382 24,33.712 Z M22.848,36.112 L20.616,38.336 L18.144,33.808 L18.944,32.488 L22.848,36.112 Z M25.408,39.04 L22.608,39.04 L22.544,38.68 L24,37.184 L25.464,38.64 L25.408,39.04 Z" id="Shape" fill="#668292" fill-rule="nonzero"></path>
                                <path d="M20.864,26 C20.6683378,26.0843271 20.5143967,26.2432202 20.4363048,26.4414534 C20.358213,26.6396866 20.3624224,26.8608815 20.448,27.056 C21.0620429,28.4710692 22.4574471,29.3866759 24,29.3866759 C25.5425529,29.3866759 26.9379571,28.4710692 27.552,27.056 C27.7331494,26.6495184 27.5504816,26.1731494 27.144,25.992 C26.7375184,25.8108506 26.2611494,25.9935184 26.08,26.4 C25.722705,27.2312593 24.9047937,27.7699664 24,27.7699664 C23.0952063,27.7699664 22.277295,27.2312593 21.92,26.4 C21.7382299,25.9985972 21.2660906,25.8197566 20.864,26 Z" id="Shape" fill="#668292" fill-rule="nonzero"></path>
                                <path d="M20.448,21.28 C20.8898278,21.28 21.248,20.9218278 21.248,20.48 L21.248,19.56 C21.248,19.1181722 20.8898278,18.76 20.448,18.76 C20.0061722,18.76 19.648,19.1181722 19.648,19.56 L19.648,20.48 C19.648,20.9218278 20.0061722,21.28 20.448,21.28 Z" id="Shape" fill="#668292" fill-rule="nonzero"></path>
                                <path d="M27.552,21.28 C27.9938278,21.28 28.352,20.9218278 28.352,20.48 L28.352,19.56 C28.352,19.1181722 27.9938278,18.76 27.552,18.76 C27.1101722,18.76 26.752,19.1181722 26.752,19.56 L26.752,20.48 C26.752,20.9218278 27.1101722,21.28 27.552,21.28 Z" id="Shape" fill="#668292" fill-rule="nonzero"></path>
                            </g>
                            <polygon id="Path" fill="#F0F3F4" fill-rule="nonzero" points="23.008 42.84 23.624 40.64 24.376 40.64 24.992 42.84"></polygon>
                            <path d="M37.912,42.852 L26.664,42.852 L26.048,40.7413773 C26.4028161,40.7367023 26.7122211,40.4935785 26.808,40.1441856 L26.984,40.3159805 C27.1317044,40.4701167 27.3329846,40.5583282 27.544,40.5614017 L27.664,40.5614017 C27.9133886,40.5217432 28.1298522,40.364067 28.248,40.1360049 L30.4,36.152 C30.7523977,36.2296068 31.1115439,36.2707179 31.472,36.2747106 L32.12,36.2747106 C35.32013,36.2747075 37.915586,38.9251303 37.92,42.1975433 L37.912,42.852 Z" id="Path" fill="#F0F3F4" fill-rule="nonzero"></path>
                            <path d="M21.336,42.932 L10.096,42.932 L10.096,42.3108628 C10.100414,38.9979996 12.69587,36.3148151 15.896,36.3148183 L16.744,36.3148183 C17.0443287,36.3121305 17.3439619,36.2844351 17.64,36.232 L19.728,40.1327417 C19.8461478,40.3636228 20.0626114,40.5232481 20.312,40.5633968 L20.432,40.5633968 C20.6430154,40.5602853 20.8442956,40.4709834 20.992,40.3149419 L21.168,40.1410235 C21.2637789,40.4947352 21.5731839,40.7408643 21.928,40.745597 L21.336,42.932 Z" id="Path" fill="#F0F3F4" fill-rule="nonzero"></path>
                        </g>
                    </g>
                </g>
            </g>
        </g>
    </g>
</svg>