<?xml version="1.0" encoding="UTF-8"?>
<svg width="72px" height="72px" viewBox="0 0 72 72" version="1.1" xmlns="http://www.w3.org/2000/svg" xmlns:xlink="http://www.w3.org/1999/xlink">
    <!-- Generator: Sketch 51.3 (57544) - http://www.bohemiancoding.com/sketch -->
    <title>Group</title>
    <desc>Created with Sketch.</desc>
    <defs></defs>
    <g id="JB" stroke="none" stroke-width="1" fill="none" fill-rule="evenodd">
        <g id="1-1-7-Jednorazove-brigady" transform="translate(-512.000000, -480.000000)">
            <g id="Workers" transform="translate(512.000000, 153.000000)">
                <g id="2" transform="translate(0.000000, 327.000000)">
                    <g id="Group">
                        <circle id="Photo" fill-opacity="0.0981091486" fill="#668292" cx="36" cy="36" r="36"></circle>
                        <g id="Lady" transform="translate(12.000000, 12.000000)">
                            <rect id="Rectangle-path" x="0" y="0" width="48" height="48"></rect>
                            <path d="M38.536,42.664 L38.536,42.104 C38.5298976,39.475299 37.0916824,37.058852 34.784,35.8 C34.7816667,35.4904397 34.6009454,35.2100102 34.32,35.08 C33.3562116,34.6284745 32.3043069,34.3962358 31.24,34.4 L30.4,34.4 C30.1862033,34.4008875 29.9816571,34.4873155 29.832,34.64 C29.0711384,34.3317889 28.4290744,33.7878569 28,33.088 C28.5837171,32.8039744 29.1383423,32.4636971 29.656,32.072 L34.128,32.072 C35.5576987,32.0676077 36.7156077,30.9096987 36.72,29.48 L36.72,17.016 C36.7185566,16.0577781 36.6112388,15.1026494 36.4,14.168 C36.496,14.096 36.592,14.024 36.68,13.944 C37.2191519,13.4047617 37.4870443,12.6515431 37.4094797,11.8929612 C37.3319151,11.1343793 36.9171276,10.4509643 36.28,10.032 L35.088,9.232 C35.1765287,8.95033441 35.1027218,8.64280548 34.896,8.432 L32.8,6.272 C32.5891945,6.06527824 32.2816656,5.9914713 32,6.08 L31.2,4.88 C30.78403,4.24203814 30.1026156,3.82560557 29.3451462,3.74644381 C28.5876769,3.66728206 27.8348856,3.93382838 27.296,4.472 C27.2409954,4.53244293 27.1902091,4.59659402 27.144,4.664 C23.3300255,3.67987283 19.2752956,4.5193624 16.1656129,6.93696062 C13.0559302,9.35455883 11.2426261,13.077126 11.256,17.016 L11.256,29.48 C11.2603923,30.9096987 12.4183013,32.0676077 13.848,32.072 L18.32,32.072 C18.8796909,32.5017138 19.4862174,32.8667032 20.128,33.16 C19.6712653,33.8743576 18.9860365,34.412953 18.184,34.688 C18.0389761,34.5135353 17.826697,34.4088498 17.6,34.4 L16.8,34.4 C15.7350874,34.3987382 14.6831542,34.6337155 13.72,35.088 C13.4364366,35.2192313 13.2552268,35.5035432 13.256,35.816 C10.9633925,37.0737209 9.5132315,39.4174779 9.504,41.984 L9.504,42.672 L38.536,42.664 Z M13.216,42.664 L10.976,42.664 L10.976,41.976 C10.9802332,40.2628993 11.8153259,38.6583285 13.216,37.672 L13.216,42.664 Z M35.424,11.376 C35.6623309,11.5241941 35.8165795,11.7763313 35.84,12.056 C35.8589212,12.331534 35.7582583,12.6018693 35.5637349,12.7979244 C35.3692115,12.9939796 35.0996739,13.0967596 34.824,13.08 C34.5444908,13.0497258 34.2926564,12.8974538 34.136,12.664 L33.224,11.272 L34.024,10.472 L35.424,11.376 Z M32.224,7.976 L33.256,9.008 L31.76,10.472 L30.728,9.44 L32.224,7.976 Z M29.192,5.336 C29.4707976,5.36836693 29.721821,5.52014854 29.88,5.752 L30.792,7.144 L29.992,7.944 L28.56,7.04 C28.3320398,6.90018828 28.1792255,6.66508931 28.144,6.4 C28.1096951,6.11721089 28.2038273,5.83391958 28.4005547,5.62789805 C28.597282,5.42187652 28.8759295,5.31477644 29.16,5.336 L29.192,5.336 Z M13.848,30.472 C13.3001335,30.472 12.856,30.0278665 12.856,29.48 L12.856,17.016 C12.8822596,10.8709484 17.8549688,5.89466943 24,5.864 C24.8594274,5.8684715 25.7155716,5.97045733 26.552,6.168 C26.543999,6.28519693 26.543999,6.40280307 26.552,6.52 C26.6261627,7.2780217 27.0412983,7.96108175 27.68,8.376 L28.856,9.176 C28.7433585,9.4687277 28.8121703,9.80027575 29.032,10.024 L31.2,12.168 C31.4124755,12.3719011 31.7197929,12.4425841 32,12.352 L32.8,13.536 C33.2140781,14.1755668 33.8975973,14.5909814 34.656,14.664 C34.735799,14.6720201 34.816201,14.6720201 34.896,14.664 C35.0631994,15.4367695 35.1463493,16.2253529 35.144,17.016 L35.144,29.48 C35.144,30.0278665 34.6998665,30.472 34.152,30.472 L31.312,30.472 C32.6215929,28.825411 33.3350027,26.7838745 33.336,24.68 L33.336,14.672 C33.3326391,14.3862568 33.1771171,14.1240041 32.928,13.984 C32.6804791,13.8410938 32.3755209,13.8410938 32.128,13.984 C30.8946629,14.6992623 29.4266453,14.892035 28.0504566,14.5194424 C26.674268,14.1468499 25.5040222,13.2397876 24.8,12 C24.6190481,11.6801293 24.2434388,11.5246886 23.8893671,11.623147 C23.5352954,11.7216055 23.2938487,12.048634 23.304,12.416 C23.3037416,14.2249071 22.3897628,15.9112775 20.8743142,16.898982 C19.3588655,17.8866866 17.4470434,18.0420522 15.792,17.312 C15.5447241,17.200844 15.2579779,17.2224872 15.0301882,17.3695004 C14.8023985,17.5165136 14.6645651,17.7688899 14.664,18.04 L14.664,24.656 C14.6649973,26.7598745 15.3784071,28.801411 16.688,30.448 L13.848,30.472 Z M16.248,24.68 L16.248,19.2 C16.8002362,19.3370628 17.3670098,19.4069022 17.936,19.408 C21.0325931,19.4166205 23.7606728,17.373824 24.624,14.4 C25.9165514,15.6369634 27.634941,16.3300473 29.424,16.336 C30.206196,16.3385175 30.9829487,16.2059011 31.72,15.944 L31.72,24.744 C31.72,29.0164748 28.2564748,32.48 23.984,32.48 C19.7115252,32.48 16.248,29.0164748 16.248,24.744 L16.248,24.68 Z M21.648,33.712 C22.410724,33.9114747 23.1956267,34.0136195 23.984,34.016 C24.8341412,34.0153509 25.6798947,33.8941442 26.496,33.656 C27.1412766,34.8570634 28.2152177,35.7710558 29.504,36.216 C28.984,38.704 26.568,39.832 24.168,39.832 L23.8,39.832 C21.4,39.832 19,38.72 18.48,36.272 C19.8360459,35.8693549 20.9795559,34.9499499 21.664,33.712 L21.648,33.712 Z M33.168,42.664 L14.768,42.664 L14.768,36.344 C15.4182191,36.1046114 16.1072179,35.9879698 16.8,36 C17.192,39.2 19.952,41.44 23.792,41.44 L24.16,41.44 C28,41.432 30.784,39.2 31.2,36 L31.264,36 C31.9277399,36.0011997 32.585981,36.1203874 33.208,36.352 L33.168,42.664 Z M36.92,42.664 L34.784,42.664 L34.784,37.704 C36.1387223,38.7625643 36.9321193,40.3847514 36.936,42.104 L36.92,42.664 Z" id="Shape" fill="#668292" fill-rule="nonzero"></path>
                            <path d="M27.552,27.496 C27.7309402,27.0895184 27.5464815,26.6149403 27.14,26.4360001 C26.7335184,26.2570598 26.2589403,26.4415185 26.08,26.848 C25.722705,27.6792593 24.9047937,28.2179664 24,28.2179664 C23.0952063,28.2179664 22.277295,27.6792593 21.92,26.848 C21.7410597,26.4415184 21.2664816,26.2570597 20.86,26.436 C20.4535184,26.6149403 20.2690597,27.0895184 20.448,27.496 C21.0673277,28.9049764 22.4609154,29.8146877 24,29.8146877 C25.5390846,29.8146877 26.9326723,28.9049764 27.552,27.496 Z" id="Shape" fill="#668292" fill-rule="nonzero"></path>
                            <path d="M21.248,21.32 L21.248,20.392 C21.248,19.9501722 20.8898278,19.592 20.448,19.592 C20.0061722,19.592 19.648,19.9501722 19.648,20.392 L19.648,21.32 C19.648,21.7618278 20.0061722,22.12 20.448,22.12 C20.8898278,22.12 21.248,21.7618278 21.248,21.32 Z" id="Shape" fill="#668292" fill-rule="nonzero"></path>
                            <path d="M27.552,22.12 C27.9938278,22.12 28.352,21.7618278 28.352,21.32 L28.352,20.392 C28.352,19.9501722 27.9938278,19.592 27.552,19.592 C27.1101722,19.592 26.752,19.9501722 26.752,20.392 L26.752,21.32 C26.752,21.7618278 27.1101722,22.12 27.552,22.12 Z" id="Shape" fill="#668292" fill-rule="nonzero"></path>
                        </g>
                    </g>
                </g>
            </g>
        </g>
    </g>
</svg>