<?xml version="1.0" encoding="UTF-8"?>
<svg width="45px" height="56px" viewBox="0 0 45 56" version="1.1" xmlns="http://www.w3.org/2000/svg" xmlns:xlink="http://www.w3.org/1999/xlink">
    <!-- Generator: Sketch 52.2 (67145) - http://www.bohemiancoding.com/sketch -->
    <title>Group</title>
    <desc>Created with Sketch.</desc>
    <g id="Jak-to-funguje" stroke="none" stroke-width="1" fill="none" fill-rule="evenodd">
        <g id="4-1-1-Jak-to-funguje" transform="translate(-860.000000, -331.000000)">
            <g id="Main-content" transform="translate(164.000000, 201.000000)">
                <g id="Info" transform="translate(696.000000, 119.000000)">
                    <g id="1">
                        <g id="Group">
                            <polygon id="1" fill="#BCEBCF" points="12.558 41 5.922 41 5.922 17.186 0.378 17.186 0.378 11.6 12.558 11.6"></polygon>
                            <g id="Proposal" transform="translate(2.000000, 24.000000)">
                                <rect id="Rectangle-path" x="0" y="0" width="48" height="48"></rect>
                                <path d="M36.472,7.576 L27.296,6.688 C27.0677988,6.66466419 26.8405595,6.74041063 26.672,6.896 C26.5010453,7.05426421 26.407571,7.27918673 26.416,7.512 L26.864,19.464 C26.8746523,19.7850213 27.0762695,20.0685454 27.376,20.184 L33.144,22.4 C33.2367649,22.4314997 33.3340333,22.4477111 33.432,22.448 C33.5334339,22.4494896 33.6341205,22.4304408 33.728,22.392 L37.128,21.056 C37.4071541,20.9465993 37.6017013,20.690291 37.632,20.392 L38.624,10.184 C38.7447544,8.87114997 37.783898,7.70669209 36.472,7.576 Z" id="Shape" fill="#FFC670" fill-rule="nonzero"></path>
                                <polygon id="Rectangle-path" fill="#FFDEAD" fill-rule="nonzero" transform="translate(33.073762, 33.697235) rotate(-45.000000) translate(-33.073762, -33.697235) " points="25.7897624 31.5652346 40.3577624 31.5652346 40.3577624 35.8292346 25.7897624 35.8292346"></polygon>
                                <path d="M37.2364587,25.7817523 L41.5004587,25.7817523 L41.5004587,27.1657523 C41.5004587,27.6558724 41.3057593,28.1259184 40.9591921,28.4724856 C40.6126248,28.8190529 40.1425788,29.0137523 39.6524587,29.0137523 L39.0844587,29.0137523 C38.5943387,29.0137523 38.1242926,28.8190529 37.7777254,28.4724856 C37.4311582,28.1259184 37.2364587,27.6558724 37.2364587,27.1657523 L37.2364587,25.7817523 Z" id="Shape" fill="#F6716F" fill-rule="nonzero" transform="translate(39.368459, 27.397752) rotate(-135.000000) translate(-39.368459, -27.397752) "></path>
                                <polygon id="Shape" fill="#FFDEAD" fill-rule="nonzero" points="29.432 40.36 24.904 41.864 26.408 37.344 26.416 37.344"></polygon>
                                <path d="M32.368,12.264 L27.568,12.264 C27.4221968,12.264 27.304,12.1458032 27.304,12 L27.304,7.2 C27.3040046,6.70424725 27.1065216,6.22891514 26.7552217,5.87911645 C26.4039217,5.52931776 25.9277482,5.33387231 25.432,5.336 L11.032,5.336 C9.7065166,5.336 8.632,6.4105166 8.632,7.736 L8.632,40.264 C8.632,41.5894834 9.7065166,42.664 11.032,42.664 L18.888,42.664 C19.228988,42.6614675 19.5308902,42.4430701 19.64,42.12 L21,38.064 L34,25.056 C34.1497492,24.9050249 34.2332294,24.7006424 34.232,24.488 L34.232,14.136 C34.2341277,13.6402518 34.0386822,13.1640783 33.6888835,12.8127783 C33.3390849,12.4614784 32.8637528,12.2639954 32.368,12.264 Z" id="Shape" fill="#FFF6E6" fill-rule="nonzero"></path>
                                <path d="M17.856,11.312 L9.44,11.312 L9.44,23.576 L17.856,23.576 C18.8854588,23.576 19.72,22.7414588 19.72,21.712 L19.72,13.176 C19.72,12.1465412 18.8854588,11.312 17.856,11.312 Z" id="Shape" fill="#FFDEAD" fill-rule="nonzero"></path>
                                <path d="M33.048,13.312 C32.8587073,13.1499492 32.6171739,13.0618605 32.368,13.064 L27.568,13.064 C27.2858097,13.064 27.0151771,12.9519003 26.8156384,12.7523616 C26.6160997,12.5528229 26.504,12.2821903 26.504,12 L26.504,7.2 C26.5046943,6.91770697 26.3923332,6.64688802 26.192,6.448 L33.048,13.312 Z" id="Shape" fill="#FFDEAD" fill-rule="nonzero"></path>
                                <path d="M13.698,25.56 L16.902,25.56 C17.1947109,25.56 17.432,25.7972891 17.432,26.09 L17.432,29.294 C17.432,29.5867109 17.1947109,29.824 16.902,29.824 L13.698,29.824 C13.4052891,29.824 13.168,29.5867109 13.168,29.294 L13.168,26.09 C13.168,25.7972891 13.4052891,25.56 13.698,25.56 Z" id="Rectangle-path" fill="#79DEB4" fill-rule="nonzero"></path>
                                <rect id="Rectangle-path" fill="#79DEB4" fill-rule="nonzero" x="6.768" y="10.624" width="10.664" height="10.664" rx="1.33"></rect>
                                <path d="M18.888,41.064 L11.032,41.064 C10.5901722,41.064 10.232,40.7058278 10.232,40.264 L10.232,22.088 L16.368,22.088 C17.3974588,22.088 18.232,21.2534588 18.232,20.224 L18.232,11.688 C18.232,10.6585412 17.3974588,9.824 16.368,9.824 L10.232,9.824 L10.232,7.736 C10.232,7.2941722 10.5901722,6.936 11.032,6.936 L25.432,6.936 C25.5791519,6.93593634 25.699672,7.05291173 25.704,7.2 L25.704,12 C25.704,13.0294588 26.5385412,13.864 27.568,13.864 L32.368,13.864 C32.4394255,13.8639672 32.5078164,13.8928769 32.5575625,13.9441305 C32.6073087,13.9953841 32.6341644,14.0646073 32.632,14.136 L32.632,24.536 C32.632,24.9778278 32.9901722,25.336 33.432,25.336 C33.8738278,25.336 34.232,24.9778278 34.232,24.536 L34.232,14.136 C34.2153751,13.6223762 33.9865391,13.1386344 33.6,12.8 L29.352,8.552 L36.304,9.224 C36.515158,9.24617092 36.7088419,9.35137189 36.8423893,9.51643048 C36.9759367,9.68148906 37.0383926,9.89286541 37.016,10.104 L36.04,20.248 C36.0176878,20.4603909 36.0812219,20.6728864 36.2164559,20.8381724 C36.35169,21.0034585 36.5473966,21.1078128 36.76,21.128 C37.1995521,21.1697566 37.5898258,20.8475122 37.632,20.408 L38.624,10.2 C38.7541295,8.88120757 37.7907526,7.70653243 36.472,7.576 L27.584,6.712 L26.784,5.912 C26.4341342,5.56191868 25.9589336,5.36607845 25.464,5.368 L11.064,5.368 C9.7385166,5.368 8.664,6.4425166 8.664,7.768 L8.664,9.856 L7.864,9.856 C6.83636191,9.86038231 6.00438231,10.6923619 6,11.72 L6,20.224 C6,21.2534588 6.83454123,22.088 7.864,22.088 L8.664,22.088 L8.664,40.264 C8.664,41.5894834 9.7385166,42.664 11.064,42.664 L18.92,42.664 C19.3618278,42.664 19.72,42.3058278 19.72,41.864 C19.72,41.4221722 19.3618278,41.064 18.92,41.064 L18.888,41.064 Z M27.304,8.688 L30.872,12.264 L27.568,12.264 C27.4221968,12.264 27.304,12.1458032 27.304,12 L27.304,8.688 Z M7.568,20.224 L7.568,11.688 C7.568,11.5421968 7.68619683,11.424 7.832,11.424 L16.368,11.424 C16.5138032,11.424 16.632,11.5421968 16.632,11.688 L16.632,20.224 C16.632,20.3698032 16.5138032,20.488 16.368,20.488 L7.832,20.488 C7.68619683,20.488 7.568,20.3698032 7.568,20.224 Z" id="Shape" fill="#002F49" fill-rule="nonzero"></path>
                                <path d="M13.6,24.8 C13.2739911,24.7978692 12.9606028,24.9258847 12.7293251,25.1556605 C12.4980474,25.3854364 12.367993,25.6979842 12.368,26.024 L12.368,29.44 C12.393796,30.1015995 12.9378979,30.6245027 13.6,30.624 L17.008,30.624 C17.332625,30.624 17.6439542,30.4950432 17.8734987,30.2654987 C18.1030432,30.0359542 18.232,29.724625 18.232,29.4 L18.232,25.984 C18.2145844,25.3218308 17.6703823,24.7954131 17.008,24.8 L13.6,24.8 Z M16.632,29.064 L13.968,29.064 L13.968,26.4 L16.632,26.4 L16.632,29.064 Z" id="Shape" fill="#002F49" fill-rule="nonzero"></path>
                                <path d="M28.368,29.312 C28.368,28.8701722 28.0098278,28.512 27.568,28.512 L21.168,28.512 C20.7261722,28.512 20.368,28.8701722 20.368,29.312 C20.368,29.7538278 20.7261722,30.112 21.168,30.112 L27.568,30.112 C28.0098278,30.112 28.368,29.7538278 28.368,29.312 Z" id="Shape" fill="#002F49" fill-rule="nonzero"></path>
                                <path d="M21.168,25.272 C20.7261722,25.272 20.368,25.6301722 20.368,26.072 C20.368,26.5138278 20.7261722,26.872 21.168,26.872 L23.832,26.872 C24.2738278,26.872 24.632,26.5138278 24.632,26.072 C24.632,25.6301722 24.2738278,25.272 23.832,25.272 L21.168,25.272 Z" id="Shape" fill="#002F49" fill-rule="nonzero"></path>
                                <path d="M27.304,18.624 C27.304,18.1821722 26.9458278,17.824 26.504,17.824 L21.168,17.824 C20.7261722,17.824 20.368,18.1821722 20.368,18.624 C20.368,19.0658278 20.7261722,19.424 21.168,19.424 L26.504,19.424 C26.9458278,19.424 27.304,19.0658278 27.304,18.624 Z" id="Shape" fill="#002F49" fill-rule="nonzero"></path>
                                <path d="M21.168,16.176 L23.832,16.176 C24.2738278,16.176 24.632,15.8178278 24.632,15.376 C24.632,14.9341722 24.2738278,14.576 23.832,14.576 L21.168,14.576 C20.7261722,14.576 20.368,14.9341722 20.368,15.376 C20.368,15.8178278 20.7261722,16.176 21.168,16.176 Z" id="Shape" fill="#002F49" fill-rule="nonzero"></path>
                                <path d="M13.6,13.92 L11.2,16.32 L10.512,15.632 C10.19997,15.3218211 9.69602996,15.3218211 9.384,15.632 C9.23254988,15.7822133 9.14736134,15.98669 9.14736134,16.2 C9.14736134,16.41331 9.23254988,16.6177867 9.384,16.768 L10.632,18.016 C10.7816571,18.1686845 10.9862033,18.2551125 11.2,18.256 C11.4137967,18.2551125 11.6183429,18.1686845 11.768,18.016 L14.712,15.08 C15.0323252,14.7729297 15.0430703,14.2643252 14.736,13.944 C14.4289297,13.6236748 13.9203252,13.6129297 13.6,13.92 Z" id="Shape" fill="#002F49" fill-rule="nonzero"></path>
                                <path d="M41.256,25.92 L40.848,25.512 C39.8139875,24.4784499 38.1380125,24.4784499 37.104,25.512 L25.848,36.8 C25.7575878,36.8852338 25.6913449,36.9928786 25.656,37.112 L24.144,41.6 C24.051081,41.8860867 24.1264917,42.2001155 24.3391881,42.4128119 C24.5518845,42.6255083 24.8659133,42.700919 25.152,42.608 L29.68,41.12 C29.7982209,41.0786734 29.9050881,41.0101687 29.992,40.92 L41.256,29.664 C42.2895501,28.6299875 42.2895501,26.9540125 41.256,25.92 Z M26.168,40.6 L26.76,38.824 L27.944,40 L26.168,40.6 Z M29.432,39.2 L27.544,37.32 L34.744,30.12 L36.632,32 L29.432,39.2 Z M37.768,30.888 L35.88,29.008 L36.68,28.208 L38.56,30.096 L37.768,30.888 Z M40.12,28.488 L39.736,28.88 L37.848,27.04 L38.24,26.648 C38.6490286,26.2401258 39.3109714,26.2401258 39.72,26.648 L40.12,27.048 C40.5278742,27.4570286 40.5278742,28.1189714 40.12,28.528 L40.12,28.488 Z" id="Shape" fill="#002F49" fill-rule="nonzero"></path>
                            </g>
                        </g>
                    </g>
                </g>
            </g>
        </g>
    </g>
</svg>