<?xml version="1.0" encoding="UTF-8"?>
<svg width="41px" height="55px" viewBox="0 0 41 55" version="1.1" xmlns="http://www.w3.org/2000/svg" xmlns:xlink="http://www.w3.org/1999/xlink">
    <!-- Generator: Sketch 52.2 (67145) - http://www.bohemiancoding.com/sketch -->
    <title>Group 2</title>
    <desc>Created with Sketch.</desc>
    <g id="Jak-to-funguje" stroke="none" stroke-width="1" fill="none" fill-rule="evenodd">
        <g id="4-1-1-Jak-to-funguje" transform="translate(-861.000000, -427.000000)">
            <g id="Main-content" transform="translate(164.000000, 201.000000)">
                <g id="Info" transform="translate(696.000000, 119.000000)">
                    <g id="2" transform="translate(0.000000, 96.000000)">
                        <g id="Group-2">
                            <path d="M12.6,11.306 C18.354,11.306 22.428,14.288 22.428,18.908 C22.428,22.058 20.118,25.376 16.926,28.652 L10.416,35.456 L23.436,35.456 L23.436,41 L1.806,41 L1.806,36.464 L12.432,25.208 C14.238,23.36 15.498,21.302 15.498,19.874 C15.498,18.026 14.07,16.934 11.634,16.934 C9.198,16.934 6.216,18.362 3.612,20.63 L1.05,15.674 C4.62,12.944 8.526,11.306 12.6,11.306 Z" id="2" fill="#BCEBCF"></path>
                            <g id="Message" transform="translate(2.000000, 24.000000)">
                                <rect id="Rectangle-path" x="0" y="0" width="48" height="48"></rect>
                                <path d="M29.032,16.112 C26.6169672,11.9259165 21.722537,9.84415215 17.032,11.008 L16.52,10.104 C15.9812435,9.17082225 14.9855676,8.59595363 13.9080337,8.59594159 C12.8304998,8.59592955 11.834811,9.17077591 11.2960336,10.1039416 C10.7572563,11.0371073 10.7572435,12.1868223 11.296,13.12 L11.816,14.016 C8.46142747,17.4937705 7.80922691,22.770073 10.216,26.96 L17.856,40.184 L36.664,29.328 L29.032,16.112 Z" id="Shape" fill="#FFF6E6" fill-rule="nonzero"></path>
                                <path d="M38.4,26.256 C38.3998368,25.825329 38.1703998,25.4273164 37.7977987,25.2113397 C37.4251976,24.9953629 36.9657917,24.9940905 36.592,25.208 L25.816,31.416 L21.176,34.096 C19.2721453,35.1802118 16.8503559,34.5310724 15.744,32.64 L12.664,27.296 C10.4207284,23.4677111 10.4730346,18.7140015 12.8,14.936 C14.0071561,13.0015795 15.8476854,11.5455541 18.008,10.816 C16.1307703,11.1015108 14.3619943,11.8769025 12.88,13.064 C8.70904856,16.5700691 7.69295904,22.5819322 10.48,27.264 L16.128,37.048 L15.104,37.6 C14.2584548,38.0741015 13.9120248,39.1133917 14.304,40 C14.5176462,40.4478504 14.9066913,40.7876425 15.3792141,40.9390921 C15.8517368,41.0905417 16.3658203,41.0402139 16.8,40.8 L17.848,40.2 L18.992,39.536 L36.56,29.392 C37.6404427,28.7019299 38.3246542,27.5357954 38.4,26.256 Z" id="Shape" fill="#FEECD0" fill-rule="nonzero"></path>
                                <path d="M36.56,25.208 L34.856,26.2 L29.032,16.112 C27.5983648,13.6139463 25.2301558,11.7885631 22.4494049,11.0382256 C19.668654,10.2878881 16.7036577,10.674198 14.208,12.112 C13.912,12.28 13.632,12.464 13.36,12.656 C18.2111706,11.1424072 23.46317,13.1966703 26,17.6 L29.264,23.256 C30.7369254,25.8076307 29.8630991,29.0701542 27.312,30.544 L21.6,33.864 L18.28,35.784 L15.104,37.6 C14.2584548,38.0741015 13.9120248,39.1133917 14.304,40 C14.5176462,40.4478504 14.9066913,40.7876425 15.3792141,40.9390921 C15.8517368,41.0905417 16.3658203,41.0402139 16.8,40.8 L17.848,40.2 L22.568,37.472 C24.2070166,39.7056855 27.2644456,40.3479517 29.6637089,38.9625773 C32.0629721,37.5772029 33.0351724,34.6081619 31.92,32.072 L36.64,29.344 C37.662326,28.6992389 38.3160456,27.6057442 38.4,26.4 L38.4,26.28 C38.4158441,25.8350138 38.1856113,25.417391 37.8008768,25.1932413 C37.4161423,24.9690916 36.9392945,24.9747631 36.56,25.208 Z" id="Shape" fill="#FFDEAD" fill-rule="nonzero"></path>
                                <circle id="Oval" fill="#FFF0D9" fill-rule="nonzero" cx="29.136" cy="32.72" r="3.264"></circle>
                                <path d="M25.816,31.416 L35.904,25.6 C36.7680442,25.1050316 37.8696605,25.4018958 38.368,26.264 C38.6089433,26.6787691 38.6751894,27.1722851 38.5521558,27.6359119 C38.4291221,28.0995387 38.126894,28.4952719 37.712,28.736 L16.8,40.8 C16.3842605,41.040278 15.8900152,41.1053056 15.4262735,40.9807407 C14.9625318,40.8561758 14.5673902,40.5522513 14.328,40.136 C13.8330316,39.2719558 14.1298958,38.1703395 14.992,37.672 L18.232,35.8" id="Shape" fill="#FFDEAD" fill-rule="nonzero"></path>
                                <path d="M25.816,31.416 L35.904,25.6 C36.7680442,25.1050316 37.8696605,25.4018958 38.368,26.264 C38.6089433,26.6787691 38.6751894,27.1722851 38.5521558,27.6359119 C38.4291221,28.0995387 38.126894,28.4952719 37.712,28.736 L16.8,40.8 C16.3842605,41.040278 15.8900152,41.1053056 15.4262735,40.9807407 C14.9625318,40.8561758 14.5673902,40.5522513 14.328,40.136 C13.8330316,39.2719558 14.1298958,38.1703395 14.992,37.672 L18.232,35.8" id="Shape"></path>
                                <path d="M25.136,6.976 C24.5060251,6.98475049 23.9999392,7.49796434 24,8.128 L24,18.4 C23.9994262,18.6334098 24.1397705,18.8440917 24.3553816,18.9334914 C24.5709927,19.0228911 24.8192414,18.9733331 24.984,18.808 L27.664,16.136 L38.064,16.136 C38.3716727,16.1297002 38.6642333,16.0014022 38.8772887,15.7793445 C39.090344,15.5572869 39.2064315,15.2596699 39.2,14.952 L39.2,8.128 C39.2000074,7.82107945 39.0775388,7.52684482 38.8597635,7.31057146 C38.6419883,7.09429811 38.3469131,6.97386861 38.04,6.976 L25.136,6.976 Z" id="Shape" fill="#2fbd68" fill-rule="nonzero"></path>
                                <path d="M24.96,18.784 L27.64,16.112 L38.04,16.112 C38.6806503,16.112 39.2,15.5926503 39.2,14.952 L39.2,8.128 C39.2000074,7.82107945 39.0775388,7.52684482 38.8597635,7.31057146 C38.6419883,7.09429811 38.3469131,6.97386861 38.04,6.976 L37.44,6.976 C37.44,9.264 37.296,12.968 36.2,12.968 L25.8,12.968 C24.7445928,13.2404909 24.0053581,14.1899968 24,15.28 L24,18.4 C24.0167102,18.6189854 24.1564954,18.8094112 24.3604093,18.8909768 C24.5643232,18.9725424 24.7968751,18.9310513 24.96,18.784 Z" id="Shape" fill="#79DEB4" fill-rule="nonzero"></path>
                                <path d="M38.064,6.176 L25.136,6.176 C24.0660148,6.18909425 23.2042875,7.05794323 23.2,8.128 L23.2,10.44 C21.3460095,9.83827657 19.3695905,9.71715897 17.456,10.088 L17.232,9.704 C16.1586922,7.9222873 13.8561992,7.32833342 12.0549503,8.36852196 C10.2537014,9.4087105 9.61728624,11.6998304 10.624,13.52 L10.856,13.92 C7.61155538,17.6699561 7.0948079,23.0621037 9.568,27.36 L14.968,36.8 L14.616,37 C13.3678365,37.7201793 12.9398207,39.3158365 13.66,40.564 C14.3801793,41.8121635 15.9758365,42.2401793 17.224,41.52 L22.4,38.488 C24.3726837,40.6312356 27.5679884,41.1196112 30.090806,39.6634754 C32.6136235,38.2073397 33.7890708,35.1962258 32.92,32.416 L38.104,29.416 C39.2845038,28.6666342 39.6639828,27.1196163 38.9642488,25.9090335 C38.2645148,24.6984507 36.7345763,24.2551032 35.496,24.904 L35.144,25.104 L30.4,16.904 L38.048,16.904 C39.1242387,16.8996161 39.9956161,16.0282387 40,14.952 L40,8.128 C39.9957125,7.05794323 39.1339852,6.18909425 38.064,6.176 Z M12.8,9.696 C13.8562977,9.08430874 15.208362,9.44199773 15.824,10.496 C15.1207601,10.7386311 14.4407018,11.0438541 13.792,11.408 C13.1544995,11.7937243 12.5545439,12.2383342 12,12.736 C11.698919,12.2277413 11.6140622,11.6200294 11.7644022,11.0487374 C11.9147422,10.4774454 12.28774,9.99022154 12.8,9.696 Z M29.296,38.272 C27.5424682,39.2957089 25.3251551,39.0486183 23.84,37.664 L31.496,33.24 C31.957004,35.219362 31.0620704,37.2663192 29.296,38.272 Z M33.76,25.904 L25.416,30.704 C25.0350909,30.9236868 24.9028894,31.4096167 25.12,31.792 C25.225561,31.9771518 25.4006392,32.1125277 25.6063971,32.1680973 C25.812155,32.223667 26.031581,32.194836 26.216,32.088 L36.304,26.264 C36.6155718,26.0423527 37.0257293,26.0160775 37.3630361,26.1961568 C37.700343,26.3762361 37.9067198,26.7316629 37.8959058,27.1138769 C37.8850919,27.4960909 37.6589491,27.8392803 37.312,28 L16.424,40.096 C15.9401986,40.3743515 15.3223515,40.2078014 15.044,39.724 C14.7656485,39.2401986 14.9321986,38.6223515 15.416,38.344 L18.656,36.472 C18.9163827,36.3357897 19.08113,36.0677909 19.0851071,35.7739601 C19.0890842,35.4801292 18.9316509,35.2077696 18.6750503,35.0645617 C18.4184496,34.9213538 18.1039913,34.9303525 17.856,35.088 L16.352,36 L10.928,26.56 C9.58921335,24.2477959 9.22481159,21.4981272 9.9151084,18.9170174 C10.6054052,16.3359075 12.2937379,14.1352259 14.608,12.8 C17.2232441,11.2861946 20.3852507,11.0447751 23.2,12.144 L23.2,18.4 C23.1986301,18.9369532 23.5115162,19.4250555 24,19.648 C24.5139747,19.872915 25.1135859,19.7549064 25.504,19.352 L28,16.904 L28.6,16.904 L33.76,25.904 Z M38.4,14.952 C38.3956502,15.1476914 38.2357398,15.3040483 38.04,15.304 L27.64,15.304 C27.4262033,15.3048875 27.2216571,15.3913155 27.072,15.544 L24.8,17.84 L24.8,8.128 C24.8043498,7.93230857 24.9642602,7.77595166 25.16,7.776 L38.064,7.776 C38.2597398,7.77595166 38.4196502,7.93230857 38.424,8.128 L38.4,14.952 Z" id="Shape" fill="#002F49" fill-rule="nonzero"></path>
                                <path d="M27.728,10.912 L30.128,10.912 C30.5698278,10.912 30.928,10.5538278 30.928,10.112 C30.928,9.6701722 30.5698278,9.312 30.128,9.312 L27.728,9.312 C27.2861722,9.312 26.928,9.6701722 26.928,10.112 C26.928,10.5538278 27.2861722,10.912 27.728,10.912 Z" id="Shape" fill="#002F49" fill-rule="nonzero"></path>
                                <path d="M34.608,12.168 L27.728,12.168 C27.2861722,12.168 26.928,12.5261722 26.928,12.968 C26.928,13.4098278 27.2861722,13.768 27.728,13.768 L34.608,13.768 C35.0498278,13.768 35.408,13.4098278 35.408,12.968 C35.408,12.5261722 35.0498278,12.168 34.608,12.168 Z" id="Shape" fill="#002F49" fill-rule="nonzero"></path>
                                <path d="M21.176,33.176 L20.48,33.576 C20.2196173,33.7122103 20.05487,33.9802091 20.0508929,34.2740399 C20.0469158,34.5678708 20.2043491,34.8402304 20.4609497,34.9834383 C20.7175504,35.1266462 21.0320087,35.1176475 21.28,34.96 L21.976,34.56 C22.1597953,34.4530976 22.2934734,34.2774263 22.3475109,34.0717839 C22.4015483,33.8661415 22.3714992,33.6474469 22.264,33.464 C22.041591,33.0859941 21.5562985,32.9575343 21.176,33.176 Z" id="Shape" fill="#002F49" fill-rule="nonzero"></path>
                            </g>
                        </g>
                    </g>
                </g>
            </g>
        </g>
    </g>
</svg>