<?xml version="1.0" encoding="UTF-8"?>
<svg width="48px" height="53px" viewBox="0 0 48 53" version="1.1" xmlns="http://www.w3.org/2000/svg" xmlns:xlink="http://www.w3.org/1999/xlink">
    <!-- Generator: Sketch 52.2 (67145) - http://www.bohemiancoding.com/sketch -->
    <title>Group 3</title>
    <desc>Created with Sketch.</desc>
    <g id="Jak-to-funguje" stroke="none" stroke-width="1" fill="none" fill-rule="evenodd">
        <g id="4-1-1-Jak-to-funguje" transform="translate(-860.000000, -523.000000)">
            <g id="Main-content" transform="translate(164.000000, 201.000000)">
                <g id="Info" transform="translate(696.000000, 119.000000)">
                    <g id="3" transform="translate(0.000000, 192.000000)">
                        <g id="Group-3">
                            <path d="M12.642,23.612 L14.07,23.78 C18.522,24.41 21.672,27.224 21.672,31.802 C21.672,37.388 17.388,41.294 10.626,41.294 C6.72,41.294 2.646,39.908 0,37.85 L2.688,32.6 C4.872,34.826 7.476,36.002 10.122,36.002 C13.356,36.002 15.204,34.448 15.162,31.886 C15.162,29.24 13.356,27.896 10.08,27.896 L5.586,27.896 L5.586,24.2 L12.474,17.018 L1.428,17.018 L1.428,11.642 L20.328,11.642 L20.328,15.59 L12.642,23.612 Z" id="3" fill="#BCEBCF"></path>
                            <g id="Cooperation" transform="translate(2.000000, 24.000000)">
                                <rect id="Rectangle-path" x="0" y="0" width="48" height="48"></rect>
                                <path d="M26.472,15.288 C28.3815336,15.5282281 30.2949361,14.8727105 31.656,13.512 L31.912,13.256 L40.336,21.68 L39.344,22.672 C38.4181454,23.5982448 37.7887831,24.7789954 37.536,26.064 C37.2840806,27.3475931 36.6577578,28.5278636 35.736,29.456 L27.392,37.792 L19.616,30.016 L16.264,26.672 L13.968,24.376 L21.288,17.056 C22.6479027,15.6939638 24.5632468,15.0407369 26.472,15.288 Z" id="Shape" fill="#FFEACC" fill-rule="nonzero"></path>
                                <path d="M37.264,27.048 C37.864,25.048 31.056,22.336 31.056,22.336 L26.256,20.864 L25.6,22.664 L29.432,26.552 L32,31.304 L33.6,31.6 L35.752,29.456 C36.4239604,28.7719253 36.9397852,27.9504266 37.264,27.048 Z" id="Shape" fill="#FFD088" fill-rule="nonzero"></path>
                                <path d="M26.472,15.288 C28.3815336,15.5282281 30.2949361,14.8727105 31.656,13.512 L31.912,13.256 L40.336,21.68 L39.344,22.672 C38.4181454,23.5982448 37.7887831,24.7789954 37.536,26.064 C37.2840806,27.3475931 36.6577578,28.5278636 35.736,29.456 L27.392,37.792 L19.616,30.016 L16.264,26.672 L13.968,24.376 L21.288,17.056 C22.6479027,15.6939638 24.5632468,15.0407369 26.472,15.288 Z" id="Shape"></path>
                                <rect id="Rectangle-path" fill="#FFD13B" fill-rule="nonzero" transform="translate(10.136687, 15.731438) rotate(45.000000) translate(-10.136687, -15.731438) " x="7.61268731" y="7.53143822" width="5.048" height="16.4" rx="2"></rect>
                                <path d="M5.328,16.968 L8.896,20.536 L7.296,22.136 C6.99589079,22.4364433 6.5886548,22.6052587 6.164,22.6052587 C5.7393452,22.6052587 5.33210921,22.4364433 5.032,22.136 L3.688,20.872 C3.38755673,20.5718908 3.21874135,20.1646548 3.21874135,19.74 C3.21874135,19.3153452 3.38755673,18.9081092 3.688,18.608 L5.328,16.968 Z" id="Shape" fill="#FF9A42" fill-rule="nonzero"></path>
                                <rect id="Rectangle-path" transform="translate(10.136687, 15.731438) rotate(45.000000) translate(-10.136687, -15.731438) " x="7.61268731" y="7.53143822" width="5.048" height="16.4" rx="2"></rect>
                                <path d="M24.848,19.784 L21.816,22.808 L18.68,19.672 L22.352,16 L19.152,15.6 C18.6217434,15.532954 18.1290394,15.2908251 17.752,14.912 L16.104,13.264 L7.664,21.68 L10.288,24.304 C10.7029686,24.7176856 11.0010608,25.2338268 11.152,25.8 C11.5326685,27.2368898 12.2860726,28.5477579 13.336,29.6 L20.584,36.856 L27.896,29.544 L31.248,26.192 L24.848,19.784 Z" id="Shape" fill="#FFF6E6" fill-rule="nonzero"></path>
                                <path d="M37.337905,7.53534414 L38.385905,7.53534414 C39.4904745,7.53534414 40.385905,8.43077464 40.385905,9.53534414 L40.385905,21.9353441 C40.385905,23.0399136 39.4904745,23.9353441 38.385905,23.9353441 L37.337905,23.9353441 C36.2333355,23.9353441 35.337905,23.0399136 35.337905,21.9353441 L35.337905,9.53534414 C35.337905,8.43077464 36.2333355,7.53534414 37.337905,7.53534414 Z" id="Rectangle-path" fill="#2fbd68" fill-rule="nonzero" transform="translate(37.861905, 15.735344) rotate(135.000000) translate(-37.861905, -15.735344) "></path>
                                <path d="M42.672,16.968 L39.104,20.536 L40.704,22.136 C41.0041092,22.4364433 41.4113452,22.6052587 41.836,22.6052587 C42.2606548,22.6052587 42.6678908,22.4364433 42.968,22.136 L44.272,20.832 C44.5724433,20.5318908 44.7412587,20.1246548 44.7412587,19.7 C44.7412587,19.2753452 44.5724433,18.8681092 44.272,18.568 L42.672,16.968 Z" id="Shape" fill="#7CFFB1" fill-rule="nonzero"></path>
                                <path d="M37.337905,7.53534414 L38.385905,7.53534414 C39.4904745,7.53534414 40.385905,8.43077464 40.385905,9.53534414 L40.385905,21.9353441 C40.385905,23.0399136 39.4904745,23.9353441 38.385905,23.9353441 L37.337905,23.9353441 C36.2333355,23.9353441 35.337905,23.0399136 35.337905,21.9353441 L35.337905,9.53534414 C35.337905,8.43077464 36.2333355,7.53534414 37.337905,7.53534414 Z" id="Rectangle-path" transform="translate(37.861905, 15.735344) rotate(135.000000) translate(-37.861905, -15.735344) "></path>
                                <path d="M26.984,21.92 L35.104,30.032 C35.4581857,30.3847808 35.6572838,30.8640982 35.6572838,31.364 C35.6572838,31.8639018 35.4581857,32.3432192 35.104,32.696 C34.364648,33.4302231 33.171352,33.4302231 32.432,32.696 L24.32,24.584" id="Shape" fill="#FFF6E6" fill-rule="nonzero"></path>
                                <path d="M24.32,24.584 L34.536,34.8 C34.8901857,35.1527808 35.0892838,35.6320982 35.0892838,36.132 C35.0892838,36.6319018 34.8901857,37.1112192 34.536,37.464 C34.1832192,37.8181857 33.7039018,38.0172838 33.204,38.0172838 C32.7040982,38.0172838 32.2247808,37.8181857 31.872,37.464 L21.656,27.248" id="Shape" fill="#FFF6E6" fill-rule="nonzero"></path>
                                <path d="M21.656,27.248 L29.768,35.36 C30.5022231,36.099352 30.5022231,37.292648 29.768,38.032 C29.4152192,38.3861857 28.9359018,38.5852838 28.436,38.5852838 C27.9360982,38.5852838 27.4567808,38.3861857 27.104,38.032 L18.992,29.912" id="Shape" fill="#FFF6E6" fill-rule="nonzero"></path>
                                <path d="M18.992,29.912 L25.064,36 C25.4181857,36.3527808 25.6172838,36.8320982 25.6172838,37.332 C25.6172838,37.8319018 25.4181857,38.3112192 25.064,38.664 C24.7112192,39.0181857 24.2319018,39.2172838 23.732,39.2172838 C23.2320982,39.2172838 22.7527808,39.0181857 22.4,38.664 L16.328,32.584" id="Shape" fill="#FFF6E6" fill-rule="nonzero"></path>
                                <circle id="Oval" fill="#FFEACC" fill-rule="nonzero" cx="15.144" cy="31.392" r="1.888"></circle>
                                <circle id="Oval" fill="#FFEACC" fill-rule="nonzero" cx="17.808" cy="34.056" r="1.888"></circle>
                                <circle id="Oval" fill="#FFEACC" fill-rule="nonzero" cx="20.472" cy="36.72" r="1.888"></circle>
                                <path d="M31.384,22.352 C29.7377971,22.3140463 28.1257674,21.8746515 26.688,21.072 C25.5151785,20.4044131 24.0416246,20.597184 23.08,21.544 L20.432,24.192 C20.0173865,24.6101995 19.4528932,24.8454454 18.864,24.8454454 C18.2751068,24.8454454 17.7106135,24.6101995 17.296,24.192 C16.8778005,23.7773865 16.6425546,23.2128932 16.6425546,22.624 C16.6425546,22.0351068 16.8778005,21.4706135 17.296,21.056 L21.464,16.88" id="Shape" fill="#FFEACC" fill-rule="nonzero"></path>
                                <path d="M44.864,18.064 L35.528,8.728 C34.5947756,7.8132571 33.1012244,7.8132571 32.168,8.728 L30.864,10.032 C29.9950017,10.9218851 29.9498601,12.3282167 30.76,13.272 C29.5956276,14.2497842 28.0769231,14.6990193 26.568,14.512 C25.171063,14.3445379 23.7559411,14.5980342 22.504,15.24 L22.448,15.24 L19.248,14.832 C18.8900327,14.7881434 18.5573806,14.6246365 18.304,14.368 L17.24,13.304 C18.0643644,12.3618287 18.0260519,10.9442682 17.152,10.048 L15.848,8.744 C14.9147756,7.8292571 13.4212244,7.8292571 12.488,8.744 L3.136,18.064 C2.2212571,18.9972244 2.2212571,20.4907756 3.136,21.424 L4.44,22.728 C5.33626817,23.6020519 6.75382869,23.6403644 7.696,22.816 L9.744,24.856 C10.0556416,25.1759109 10.2813061,25.5694477 10.4,26 C10.8221625,27.5658158 11.650031,28.9925091 12.8,30.136 C12.3618471,30.9591278 12.3874455,31.9517372 12.8674429,32.7511869 C13.3474404,33.5506366 14.2115209,34.0398131 15.144,34.04 C15.1397099,34.7478432 15.4190027,35.4279375 15.9195326,35.9284674 C16.4200625,36.4289973 17.1001568,36.7082901 17.808,36.704 C17.8155907,37.414137 18.1030742,38.0925982 18.608,38.592 C19.4343914,39.4204136 20.7074962,39.6060069 21.736,39.048 L21.88,39.192 C22.5187189,39.8356097 23.4423452,40.1076501 24.3279582,39.9130099 C25.2135713,39.7183697 25.9380121,39.0841167 26.248,38.232 L26.576,38.56 C27.0745704,39.0617309 27.7526767,39.3438675 28.46,39.3438675 C29.1673233,39.3438675 29.8454296,39.0617309 30.344,38.56 C30.6084396,38.2880332 30.8080686,37.9598759 30.928,37.6 L31.32,37.992 C32.3605045,39.0325045 34.0474955,39.0325045 35.088,37.992 C36.1285045,36.9514955 36.1285045,35.2645045 35.088,34.224 L34.696,33.832 C35.0552527,33.7039829 35.3807628,33.4960941 35.648,33.224 C36.1561802,32.7301029 36.4444628,32.0526388 36.448,31.344 C36.4460478,30.9226489 36.3417205,30.5080849 36.144,30.136 L36.296,29.976 C37.3355414,28.9466797 38.0408575,27.6280453 38.32,26.192 C38.5389345,25.0559699 39.0967451,24.0128641 39.92,23.2 L40.328,22.792 C41.2701713,23.6163644 42.6877318,23.5780519 43.584,22.704 L44.888,21.4 C45.780509,20.4633121 45.7698934,18.9877497 44.864,18.064 Z M5.544,21.6 L4.24,20.328 C3.92982112,20.01597 3.92982112,19.51203 4.24,19.2 L13.6,9.832 C13.7510352,9.67301535 13.9607108,9.58299909 14.18,9.58299909 C14.3992892,9.58299909 14.6089648,9.67301535 14.76,9.832 L16,11.136 C16.1589847,11.2870352 16.2490009,11.4967108 16.2490009,11.716 C16.2490009,11.9352892 16.1589847,12.1449648 16,12.296 L6.704,21.6 C6.55296483,21.7589847 6.34328918,21.8490009 6.124,21.8490009 C5.90471082,21.8490009 5.69503517,21.7589847 5.544,21.6 Z M14.4,32.176 C14.1829504,31.9664487 14.0603626,31.677699 14.0603626,31.376 C14.0603626,31.074301 14.1829504,30.7855513 14.4,30.576 C14.8327822,30.1500738 15.5272178,30.1500738 15.96,30.576 C16.2458125,30.8546672 16.3612469,31.2646454 16.2628203,31.6514998 C16.1643937,32.0383543 15.8670594,32.3433125 15.4828203,32.4514998 C15.0985812,32.5596871 14.6858125,32.4546672 14.4,32.176 Z M17.064,34.84 C16.7431739,34.5221204 16.6483203,34.040883 16.8245264,33.6250366 C17.0007325,33.2091902 17.4124597,32.9426057 17.864,32.952 C18.1635118,32.9430684 18.4532719,33.0589724 18.664,33.272 C18.8790036,33.4826596 19.0001633,33.770995 19.0001633,34.072 C19.0001633,34.373005 18.8790036,34.6613404 18.664,34.872 C18.4465428,35.0934797 18.1474314,35.2155668 17.8371022,35.2095116 C17.526773,35.2034564 17.2326518,35.069794 17.024,34.84 L17.064,34.84 Z M19.728,37.504 C19.508857,37.2955951 19.3847996,37.0064174 19.3847996,36.704 C19.3847996,36.4015826 19.508857,36.1124049 19.728,35.904 C19.941817,35.6956761 20.2294954,35.5806048 20.528,35.584 C21.024095,35.5943212 21.4523533,35.9343533 21.5748605,36.415195 C21.6973676,36.8960367 21.484021,37.3995347 21.0533431,37.645976 C20.6226652,37.8924172 20.0804829,37.8212457 19.728,37.472 L19.728,37.504 Z M34.592,32.152 C34.1473589,32.5869829 33.4366411,32.5869829 32.992,32.152 L24.872,24 C24.6962553,23.7227638 24.3689923,23.5810147 24.0465492,23.6424682 C23.7241061,23.7039217 23.4719217,23.9561061 23.4104682,24.2785492 C23.3490147,24.6009923 23.4907638,24.9282553 23.768,25.104 L33.984,35.352 C34.1967742,35.5635023 34.3150605,35.8520055 34.312,36.152 C34.3178694,36.4525263 34.199148,36.7420908 33.984,36.952 C33.5512178,37.3779262 32.8567822,37.3779262 32.424,36.952 L22.208,26.696 C21.8917522,26.4955252 21.4787582,26.5412249 21.2139916,26.8059916 C20.9492249,27.0707582 20.9035252,27.4837522 21.104,27.8 L29.224,35.912 C29.6658278,36.3538278 29.6658278,37.0701722 29.224,37.512 C28.7821722,37.9538278 28.0658278,37.9538278 27.624,37.512 L19.544,29.36 C19.2277522,29.1595252 18.8147582,29.2052249 18.5499916,29.4699916 C18.2852249,29.7347582 18.2395252,30.1477522 18.44,30.464 L24.52,36.544 C24.8058125,36.8298125 24.9174349,37.2463932 24.8128203,37.6368203 C24.7082057,38.0272474 24.4032474,38.3322057 24.0128203,38.4368203 C23.6223932,38.5414349 23.2058125,38.4298125 22.92,38.144 L22.776,38 C23.2204052,37.1784649 23.1976297,36.1832537 22.7161079,35.3829084 C22.234586,34.5825632 21.3659997,34.0962279 20.432,34.104 C20.4408401,33.3969694 20.1622175,32.716652 19.659975,32.2189343 C19.1577326,31.7212166 18.4749217,31.4487619 17.768,31.464 C17.7911157,30.5220086 17.31191,29.638696 16.5096399,29.1444845 C15.7073699,28.650273 14.7029099,28.6196231 13.872,29.064 C12.9214932,28.103473 12.2424534,26.9082525 11.904,25.6 C11.7217593,24.9019358 11.3541125,24.2661557 10.84,23.76 L8.8,21.728 L16.128,14.4 L17.184,15.456 C17.683705,15.9525281 18.3332888,16.2702899 19.032,16.36 L20.68,16.568 L16.744,20.504 C15.9413873,21.2518823 15.6110033,22.3782222 15.8824578,23.4411556 C16.1539124,24.5040891 16.9839109,25.3340876 18.0468444,25.6055422 C19.1097778,25.8769967 20.2361177,25.5466127 20.984,24.744 L23.632,22.096 C24.1125493,21.6258224 24.7805643,21.3992269 25.448,21.48 L34.552,30.584 C34.7626203,30.7963167 34.8780928,31.084998 34.872,31.384 C34.8687297,31.6717629 34.7540259,31.9470519 34.552,32.152 L34.592,32.152 Z M36.8,25.912 C36.5758997,27.0461917 36.0188577,28.0878603 35.2,28.904 L35.144,28.96 L28.96,22.792 C29.7445106,22.9954509 30.5497799,23.1081886 31.36,23.128 C31.569644,23.1438873 31.7762229,23.070333 31.9286505,22.9255268 C32.081078,22.7807206 32.1651225,22.5781827 32.16,22.368 C32.16,21.9261722 31.8018278,21.568 31.36,21.568 C29.8430948,21.5272313 28.3584192,21.1210724 27.032,20.384 C25.5549949,19.5520752 23.705907,19.7966636 22.496,20.984 L19.848,23.632 C19.5063115,24.0799258 18.934792,24.2874554 18.3853086,24.1631311 C17.8358252,24.0388068 17.4093072,23.6054645 17.29372,23.0540771 C17.1781327,22.5026896 17.3947074,21.934536 17.848,21.6 L21.848,17.6 C23.0472651,16.4128787 24.7259853,15.843471 26.4,16.056 C28.3683475,16.297843 30.3472059,15.6963398 31.848,14.4 L39.2,21.728 L38.8,22.12 C37.7698349,23.1560759 37.0732886,24.4767276 36.8,25.912 Z M43.784,20.312 L42.456,21.6 C42.3049648,21.7589847 42.0952892,21.8490009 41.876,21.8490009 C41.6567108,21.8490009 41.4470352,21.7589847 41.296,21.6 L32,12.296 C31.8410153,12.1449648 31.7509991,11.9352892 31.7509991,11.716 C31.7509991,11.4967108 31.8410153,11.2870352 32,11.136 L33.304,9.832 C33.4550352,9.67301535 33.6647108,9.58299909 33.884,9.58299909 C34.1032892,9.58299909 34.3129648,9.67301535 34.464,9.832 L43.76,19.2 C44.0701789,19.51203 44.0701789,20.01597 43.76,20.328 L43.784,20.312 Z" id="Shape" fill="#002F49" fill-rule="nonzero"></path>
                            </g>
                        </g>
                    </g>
                </g>
            </g>
        </g>
    </g>
</svg>