<?xml version="1.0" encoding="UTF-8"?>
<svg width="44px" height="57px" viewBox="0 0 44 57" version="1.1" xmlns="http://www.w3.org/2000/svg" xmlns:xlink="http://www.w3.org/1999/xlink">
    <!-- Generator: Sketch 52.2 (67145) - http://www.bohemiancoding.com/sketch -->
    <title>Group 4</title>
    <desc>Created with Sketch.</desc>
    <g id="Jak-to-funguje" stroke="none" stroke-width="1" fill="none" fill-rule="evenodd">
        <g id="4-1-1-Jak-to-funguje" transform="translate(-861.000000, -619.000000)">
            <g id="Main-content" transform="translate(164.000000, 201.000000)">
                <g id="Info" transform="translate(696.000000, 119.000000)">
                    <g id="4" transform="translate(0.000000, 288.000000)">
                        <g id="Group-4">
                            <polygon id="4" fill="#BCEBCF" points="8.106 28.988 15.162 28.988 15.162 22.52 21.336 22.52 21.336 28.988 25.41 28.988 25.41 34.364 21.336 34.364 21.336 41 15.162 41 15.162 34.364 1.176 34.364 1.176 29.66 10.71 11.6 17.094 11.6"></polygon>
                            <g id="Icon" transform="translate(3.000000, 25.000000)">
                                <rect id="Rectangle-path" x="0" y="0" width="47" height="47"></rect>
                                <rect id="Rectangle-path" fill="#2fbd68" fill-rule="nonzero" x="8.82033333" y="27.5733333" width="5.82016667" height="13.865" rx="1.79"></rect>
                                <path d="M8.82033333,38.681 L8.82033333,40.0361667 C8.82033333,40.8105619 9.44810473,41.4383333 10.2225,41.4383333 L13.2461667,41.4383333 C14.0205619,41.4383333 14.6483333,40.8105619 14.6483333,40.0361667 L14.6483333,38.681 L8.82033333,38.681 Z" id="Shape" fill="#7CFFB1" fill-rule="nonzero"></path>
                                <rect id="Rectangle-path" fill="#FFEACC" fill-rule="nonzero" x="6.00033333" y="29.9546667" width="2.82783333" height="9.11016667"></rect>
                                <path d="M33.4013333,33.1115 L33.9261667,33.1115 C35.0252848,33.0440136 35.8821356,32.132938 35.8821356,31.03175 C35.8821356,29.930562 35.0252848,29.0194864 33.9261667,28.952 L33.3935,28.952 C34.5425129,28.9520322 35.4763932,28.0251473 35.485,26.8761667 C35.4806852,25.7241234 34.5455513,24.7924919 33.3935,24.7925 L27.8631667,24.7925 C27.2935052,24.791964 26.7490489,25.0273279 26.3591667,25.4426667 C25.7438525,24.9228112 25.4589512,24.1100928 25.615,23.3198333 C25.841603,22.156689 25.9048792,20.9676245 25.803,19.787 C25.6122854,17.6024411 23.6871241,15.9858666 21.5025,16.1758333 C21.028969,16.2173004 20.6784628,16.6344028 20.7191667,17.108 L20.7661667,17.6328333 C20.9765077,20.0634606 20.3909082,22.4965853 19.0976667,24.5653333 L15.181,29.7196667 C14.8601453,30.0423295 14.6799268,30.478796 14.6796667,30.9338333 L14.6796667,38.3833333 C14.676277,38.9967975 15.0022109,39.5649392 15.5335,39.8716667 C17.2632173,40.8938191 19.2348448,41.434732 21.244,41.4383333 L32.712,41.4383333 C33.8627773,41.4383333 34.7956667,40.505444 34.7956667,39.3546667 C34.7913713,38.2056732 33.8609934,37.2752953 32.712,37.271 L33.4013333,37.271 C34.5004514,37.2035136 35.3573023,36.292438 35.3573023,35.19125 C35.3573023,34.090062 34.5004514,33.1789864 33.4013333,33.1115 Z" id="Shape" fill="#FFEACC" fill-rule="nonzero"></path>
                                <path d="M36.8166667,9.7525 L37.6,12.4471667 C37.6561677,12.6299397 37.7956707,12.7752554 37.976,12.8388333 L40.6236667,13.7318333 C40.8302692,13.8108113 40.9750054,13.9991334 40.9981599,14.2191016 C41.0213144,14.4390697 40.9189628,14.6534011 40.7333333,14.7736667 L38.3833333,16.3403333 C38.2230434,16.4503101 38.1265414,16.6316168 38.1248333,16.826 L38.1248333,19.6225 C38.1211859,19.8450575 37.9920764,20.0464417 37.791357,20.1426543 C37.5906376,20.2388669 37.3527817,20.2133835 37.177,20.0768333 L34.9758333,18.3535 C34.8266882,18.2321654 34.626551,18.1939038 34.4431667,18.2516667 L31.772,19.0898333 C31.553481,19.1628841 31.3124317,19.1014584 31.1555222,18.9327385 C30.9986127,18.7640186 30.9548109,18.5191528 31.0435,18.3065 L32.0148333,15.6666667 C32.0805496,15.4847162 32.0511668,15.2819746 31.9365,15.1261667 L30.315,12.8701667 C30.18715,12.6877437 30.1734711,12.4487034 30.2796767,12.2528868 C30.3858823,12.0570702 30.5937014,11.9381644 30.8163333,11.9458333 L33.6128333,12.0476667 C33.8062584,12.0566757 33.9914088,11.9685089 34.1063333,11.8126667 L35.7748333,9.5645 C35.9072982,9.38178155 36.1327206,9.29109356 36.3548169,9.33117109 C36.5769132,9.37124862 36.7564204,9.53500661 36.8166667,9.7525 Z" id="Shape" fill="#FFD13B" fill-rule="nonzero"></path>
                                <path d="M40.8508333,12.9876667 L38.2971667,12.126 L37.6,9.541 C37.4566286,9.03870199 37.0402523,8.66153997 36.5262661,8.56839037 C36.0122799,8.47524077 35.4900262,8.68229507 35.1795,9.10233333 L33.6128333,11.2643333 L30.926,11.1625 C30.3939477,11.1139827 29.8821809,11.3789964 29.6147626,11.8415124 C29.3473442,12.3040284 29.3730011,12.8797707 29.6805,13.3166667 L31.2471667,15.5178333 L30.315,18.0558333 C30.1353908,18.5440102 30.2510592,19.0919133 30.6126667,19.4658333 C30.969304,19.849929 31.5172001,19.9907291 32.0148333,19.8261667 L34.5841667,19.0428333 L36.707,20.6956667 C36.8805197,20.8335838 37.0847348,20.9276302 37.3023333,20.9698333 C37.5870079,21.0252312 37.8820316,20.9838727 38.1405,20.8523333 C38.6175721,20.6367693 38.9240817,20.1616794 38.9238333,19.6381667 L38.9238333,16.9435 L41.1563333,15.4395 C41.5889763,15.1479906 41.8186569,14.6361787 41.7488377,14.1191846 C41.6790186,13.6021904 41.3218032,13.1696377 40.8273333,13.0033333 L40.8508333,12.9876667 Z M37.9838333,15.6666667 C37.6142212,15.9212264 37.3897328,16.3381334 37.3806667,16.7868333 L37.3806667,19.1916667 L35.4928333,17.7111667 C35.3169388,17.573804 35.1096773,17.4822859 34.8896667,17.4448333 C34.6730863,17.4032027 34.4495165,17.4166708 34.2395,17.484 L31.9521667,18.1968333 L32.7746667,15.9486667 C32.9250296,15.5226065 32.8608751,15.0501966 32.6023333,14.6796667 L31.208,12.7291667 L33.605,12.8153333 C34.0576703,12.8340843 34.489767,12.6253845 34.7565,12.2591667 L36.19,10.34 L36.8166667,12.6586667 C36.9429619,13.0902173 37.2696212,13.4343762 37.694,13.583 L39.9656667,14.3663333 L37.9838333,15.6666667 Z" id="Shape" fill="#002F49" fill-rule="nonzero"></path>
                                <path d="M30.0643333,7.72366667 C30.2041738,7.97246913 30.4682679,8.12552368 30.7536667,8.12316667 C30.8848952,8.12382323 31.0141858,8.09150058 31.1296667,8.02916667 C31.311517,7.92847065 31.4458872,7.75962395 31.503187,7.55980915 C31.5604869,7.35999436 31.5360172,7.14559798 31.4351667,6.96383333 L30.6205,5.48333333 C30.480571,5.23845754 30.2206315,5.08683423 29.9385984,5.08557842 C29.6565652,5.08432261 29.3952859,5.2336251 29.2531817,5.47724509 C29.1110776,5.72086507 29.1097376,6.02179088 29.2496667,6.26666667 L30.0643333,7.72366667 Z" id="Shape" fill="#002F49" fill-rule="nonzero"></path>
                                <path d="M33.2916667,7.05 L33.3386667,7.05 C33.7564446,7.05052253 34.1011114,6.72308903 34.122,6.30583333 L34.122,5.5225 C34.1436312,5.08987695 33.8104564,4.72163115 33.3778333,4.7 C32.9452103,4.67836885 32.5769645,5.01154361 32.5553333,5.44416667 L32.5553333,6.2275 C32.5330671,6.65742227 32.8619095,7.02474631 33.2916667,7.05 Z" id="Shape" fill="#002F49" fill-rule="nonzero"></path>
                                <path d="M27.4166667,9.29033333 L28.0981667,9.66633333 C28.2136476,9.72866725 28.3429381,9.76098989 28.4741667,9.76033333 C28.8279896,9.75576695 29.1348182,9.51456252 29.2227945,9.17182115 C29.3107709,8.82907978 29.1580477,8.46991551 28.8501667,8.2955 L28.2,7.9195 C27.8214548,7.70318847 27.3392282,7.83470483 27.1229167,8.21325 C26.9066051,8.59179517 27.0381215,9.07402181 27.4166667,9.29033333 Z" id="Shape" fill="#002F49" fill-rule="nonzero"></path>
                                <path d="M11.75,37.6705 C11.2351786,37.6705 10.8178333,38.0878452 10.8178333,38.6026667 C10.8178333,39.1174881 11.2351786,39.5348333 11.75,39.5348333 C12.2648214,39.5348333 12.6821667,39.1174881 12.6821667,38.6026667 C12.6821667,38.3554407 12.5839565,38.1183405 12.4091414,37.9435253 C12.2343262,37.7687101 11.997226,37.6705 11.75,37.6705 Z" id="Shape" fill="#002F49" fill-rule="nonzero"></path>
                                <path d="M36.8166667,31.0591667 C36.8239959,30.12733 36.3767543,29.2503857 35.6181667,28.7091667 C36.3470016,27.863692 36.5137351,26.6699801 36.0444607,25.6571576 C35.5751863,24.6443352 34.5567166,23.9997675 33.4405,24.0091667 L27.8553333,24.0091667 C27.386204,24.0114669 26.9253269,24.1327504 26.5158333,24.3616667 C26.3854876,24.0944702 26.3390636,23.7940795 26.3826667,23.5 C26.6240079,22.2647028 26.6899348,21.0015427 26.5785,19.7478333 C26.3504408,17.1331116 24.0468897,15.197708 21.432,15.4238333 C20.9964997,15.4616311 20.5939529,15.6712141 20.3132379,16.0063085 C20.0325228,16.341403 19.8967272,16.7744485 19.9358333,17.2098333 L19.9828333,17.7346667 C20.175546,19.9707388 19.6426628,22.2093974 18.4631667,24.1188333 L15.2906667,28.2705 C14.9832302,27.4044271 14.1651818,26.8245844 13.2461667,26.8213333 L10.2225,26.8213333 C9.02459976,26.8212641 8.04988065,27.7855023 8.037,28.9833333 L8.037,29.1791667 L6.00033333,29.1791667 C5.56771028,29.1791667 5.217,29.5298769 5.217,29.9625 C5.217,30.3951231 5.56771028,30.7458333 6.00033333,30.7458333 L8.037,30.7458333 L8.037,38.2815 L6.00033333,38.2815 C5.56771028,38.2815 5.217,38.6322103 5.217,39.0648333 C5.217,39.4974564 5.56771028,39.8481667 6.00033333,39.8481667 L8.037,39.8481667 L8.037,40.044 C8.037,41.2510183 9.01548168,42.2295 10.2225,42.2295 L13.2461667,42.2295 C14.206482,42.2180643 15.0476728,41.5832033 15.322,40.6628333 C17.1197345,41.6790748 19.1476067,42.2184025 21.2126667,42.2295 L32.7198333,42.2295 C34.2989075,42.2295 35.579,40.9494075 35.579,39.3703333 C35.5813612,38.7267979 35.3629307,38.1019208 34.9601667,37.6 C35.756405,37.0806875 36.2434595,36.2004686 36.2605,35.25 C36.2588824,34.5810826 36.0201911,33.934396 35.5868333,33.4248333 C36.3587346,32.884634 36.817943,32.001316 36.8166667,31.0591667 Z M13.8963333,34.9758333 L13.8963333,38.3833333 L13.8963333,40.0126667 C13.8921092,40.3526738 13.6175071,40.6272758 13.2775,40.6315 L10.2225,40.6315 C9.88072779,40.6315 9.60366667,40.3544389 9.60366667,40.0126667 L9.60366667,28.9833333 C9.60366667,28.6415611 9.88072779,28.3645 10.2225,28.3645 L13.2461667,28.3645 C13.5861738,28.3687242 13.8607758,28.6433262 13.865,28.9833333 L13.8963333,34.9758333 Z M27.8866667,25.5758333 L33.4405,25.5758333 C34.154328,25.5758334 34.7329999,26.1545053 34.7329999,26.8683333 C34.7329999,27.5821613 34.154328,28.1608333 33.4405,28.1608333 L27.8553333,28.1608333 C27.1415053,28.1608333 26.5628334,27.5821613 26.5628334,26.8683333 C26.5628334,26.1545053 27.1415053,25.5758334 27.8553333,25.5758333 L27.8866667,25.5758333 Z M25.9988333,40.655 L21.2126667,40.655 C19.3435985,40.652314 17.508531,40.1550351 15.8938333,39.2136667 C15.614205,39.0505256 15.4392453,38.7539837 15.4316667,38.4303333 L15.4316667,30.9338333 C15.4301836,30.6841255 15.5289505,30.4442631 15.7058333,30.268 L15.7763333,30.1896667 L19.7478333,24.9805 C21.1348754,22.7708325 21.764571,20.1695569 21.5416667,17.5701667 L21.4946667,17.0375 C21.4946667,16.9983333 21.4946667,16.9591667 21.5651667,16.9513333 C22.4161657,16.8657566 23.265161,17.1317751 23.9151667,17.6876667 C24.5676817,18.2264502 24.9745334,19.0062492 25.0431667,19.8496667 C25.1426405,20.9593649 25.0846212,22.0775559 24.8708333,23.171 C24.7062014,23.9944385 24.8999078,24.8490256 25.4035,25.521 C24.9169311,26.3413274 24.8902498,27.3552168 25.333,28.2 C23.9099677,28.3030475 22.7821555,29.4420455 22.6931567,30.8660254 C22.604158,32.2900054 23.5813727,33.5605675 24.9805,33.84 C24.7400838,34.2704412 24.6184286,34.7570619 24.628,35.25 C24.6337774,36.3206355 25.2388335,37.297801 26.1946667,37.7801667 C25.8658465,38.2572151 25.6884108,38.8222796 25.6855,39.4016667 C25.6898118,39.8382868 25.7971695,40.2677179 25.9988333,40.655 Z M32.7198333,40.655 L28.529,40.655 C27.815172,40.655 27.2365001,40.076328 27.2365001,39.3625 C27.2365001,38.648672 27.815172,38.07 28.529,38.07 L32.7198333,38.07 C33.4336613,38.07 34.0123333,38.648672 34.0123333,39.3625 C34.0123333,40.076328 33.4336613,40.655 32.7198333,40.655 Z M33.4013333,36.5033333 L27.4871667,36.5033333 C26.7733386,36.5033333 26.1946667,35.9246614 26.1946667,35.2108333 C26.1946667,34.4970053 26.7733386,33.9183333 27.4871667,33.9183333 L33.4013333,33.9183333 C34.1151614,33.9183333 34.6938333,34.4970053 34.6938333,35.2108333 C34.6938333,35.9246614 34.1151614,36.5033333 33.4013333,36.5033333 Z M33.9261667,32.3516667 L25.5601667,32.3516667 C24.8463386,32.3516667 24.2676667,31.7729947 24.2676667,31.0591667 C24.2676667,30.3453386 24.8463386,29.7666667 25.5601667,29.7666667 L33.9261667,29.7666667 C34.6399947,29.7666667 35.2186667,30.3453386 35.2186667,31.0591667 C35.2186667,31.7729947 34.6399947,32.3516667 33.9261667,32.3516667 Z" id="Shape" fill="#002F49" fill-rule="nonzero"></path>
                            </g>
                        </g>
                    </g>
                </g>
            </g>
        </g>
    </g>
</svg>