<?xml version="1.0" encoding="UTF-8"?>
<svg width="32px" height="34px" viewBox="0 0 32 34" version="1.1" xmlns="http://www.w3.org/2000/svg" xmlns:xlink="http://www.w3.org/1999/xlink">
    <!-- Generator: Sketch 51.3 (57544) - http://www.bohemiancoding.com/sketch -->
    <title>Inspiration</title>
    <desc>Created with Sketch.</desc>
    <defs></defs>
    <g id="JB" stroke="none" stroke-width="1" fill="none" fill-rule="evenodd">
        <g id="1-1-5-Jednorazove-brigady" transform="translate(-1344.000000, -803.000000)">
            <g id="Tip-Icon" transform="translate(1328.000000, 788.000000)">
                <g id="Inspiration" transform="translate(13.000000, 13.000000)">
                    <rect id="Rectangle-path" x="0" y="0" width="38" height="38"></rect>
                    <path d="M33.8643333,16.9923333 C33.8643333,17.1063333 33.8643333,17.214 33.8643333,17.328 C33.8456132,18.3102134 33.1663506,19.1560386 32.2113333,19.3863333 C31.1159242,19.6455187 30.2118528,20.4154142 29.7814937,21.4555533 C29.3511345,22.4956924 29.446945,23.6792905 30.039,24.6366667 C30.5505107,25.4741286 30.4390138,26.5502029 29.7666667,27.265 L29.298,27.7336667 C28.5907653,28.4132216 27.5151557,28.5327337 26.676,28.025 C25.7170666,27.4361371 24.5341614,27.3419986 23.4941617,27.7717816 C22.4541621,28.2015646 21.6828075,29.1033068 21.4193333,30.1973333 C21.1890386,31.1523506 20.3432134,31.8316132 19.361,31.8503333 L18.6643333,31.8503333 C17.6821199,31.8316132 16.8362948,31.1523506 16.606,30.1973333 C16.3425258,29.1033068 15.5711713,28.2015646 14.5311716,27.7717816 C13.4911719,27.3419986 12.3082667,27.4361371 11.3493333,28.025 C10.5101777,28.5327337 9.43456806,28.4132216 8.72733333,27.7336667 L8.23333333,27.265 C7.55482608,26.5547381 7.43550761,25.4782779 7.942,24.6366667 C8.53405498,23.6792905 8.62986546,22.4956924 8.19950635,21.4555533 C7.76914723,20.4154142 6.86507583,19.6455187 5.76966667,19.3863333 C4.81464939,19.1560386 4.13538676,18.3102134 4.11666667,17.328 C4.11666667,17.214 4.11666667,17.1063333 4.11666667,16.9923333 C4.11666667,16.8783333 4.11666667,16.7706667 4.11666667,16.6566667 C4.13538676,15.6744532 4.81464939,14.8286281 5.76966667,14.5983333 C6.86507583,14.339148 7.76914723,13.5692525 8.19950635,12.5291134 C8.62986546,11.4889743 8.53405498,10.3053762 7.942,9.348 C7.4332498,8.50688471 7.55273169,7.42895019 8.23333333,6.71966667 L8.702,6.251 C9.40923472,5.57144511 10.4848443,5.45193293 11.324,5.95966667 C12.2815691,6.56539041 13.4730118,6.67044171 14.5217982,6.24162137 C15.5705846,5.81280102 16.3471211,4.90309635 16.606,3.8 C16.8362948,2.84498272 17.6821199,2.16572009 18.6643333,2.147 L19.3356667,2.147 C20.3178801,2.16572009 21.1637052,2.84498272 21.394,3.8 C21.65249,4.8973887 22.423451,5.80324218 23.4654061,6.23383326 C24.5073611,6.66442433 25.6928899,6.56709613 26.6506667,5.97233333 C27.4898223,5.46459959 28.5654319,5.58411177 29.2726667,6.26366667 L29.7413333,6.73233333 C30.421935,7.44161686 30.5414169,8.51955137 30.0326667,9.36066667 C29.4406117,10.3180429 29.3448012,11.501641 29.7751603,12.5417801 C30.2055194,13.5819192 31.1095908,14.3518146 32.205,14.611 C33.1600173,14.8412948 33.8392799,15.6871199 33.858,16.6693333 C33.8643333,16.7706667 33.8643333,16.8783333 33.8643333,16.9923333 Z" id="Shape" fill="#FFFAD2" fill-rule="nonzero"></path>
                    <path d="M28.633,16.9923333 C28.633,11.4696667 23.9843333,7.72666667 18.3856667,8.075 C13.5723333,8.37266667 9.66466667,11.6026667 9.386,16.416 C9.20962874,19.3375925 10.3755387,22.180081 12.5526667,24.1363333 C14.477782,25.9099163 15.5616344,28.4158935 15.5356667,31.0333333 L22.4643333,31.0333333 C22.4738044,28.3834621 23.5896109,25.8579741 25.5423333,24.0666667 C27.5163137,22.2443759 28.6371561,19.6788412 28.633,16.9923333 Z" id="Shape" fill="#FFD13B" fill-rule="nonzero"></path>
                    <path d="M10.45,18.753 C10.4357994,14.5090657 13.2382072,10.7705061 17.3157515,9.59372561 C21.3932958,8.41694514 25.7567563,10.0874331 28.006,13.6863333 C26.562,10.051 22.8,7.80266667 18.3666667,8.075 C13.5533333,8.37266667 9.64566667,11.6026667 9.367,16.416 C9.22929677,18.7516438 9.95259551,21.0567361 11.4,22.895 C10.7731681,21.6042962 10.4482981,20.1878629 10.45,18.753 Z" id="Shape" fill="#FFE88A" fill-rule="nonzero"></path>
                    <path d="M19,25.6626667 C15.8490413,25.6569902 12.8515916,24.3012206 10.7666667,21.9386667 C11.2554165,22.7553159 11.8614365,23.4957699 12.5653333,24.1363333 C14.4857686,25.9121662 15.5648884,28.417841 15.5356667,31.0333333 L22.4643333,31.0333333 C22.4738044,28.3834621 23.5896109,25.8579741 25.5423333,24.0666667 C26.2153866,23.4386201 26.7954468,22.71781 27.265,21.926 C25.1765908,24.3035671 22.1645334,25.6653402 19,25.6626667 Z" id="Shape" fill="#F1B800" fill-rule="nonzero"></path>
                    <path d="M22.1666667,30.134 C22.375527,30.5844876 22.4835951,31.0751169 22.4833333,31.5716667 C22.4833334,32.8093538 21.8230352,33.9530239 20.7511667,34.5718674 C19.6792982,35.190711 18.3587018,35.190711 17.2868333,34.5718674 C16.2149648,33.9530239 15.5546666,32.8093538 15.5546667,31.5716667 C15.5544049,31.0751169 15.662473,30.5844876 15.8713333,30.134 L22.1666667,30.134 Z" id="Shape" fill="#EDF4FF" fill-rule="nonzero"></path>
                    <path d="M19,33.6743333 C17.3519974,33.6767111 15.9313105,32.5157767 15.6053333,30.9003333 C15.5599089,31.1212476 15.5365718,31.3461325 15.5356667,31.5716667 C15.5356666,32.8093538 16.1959648,33.9530239 17.2678333,34.5718674 C18.3397018,35.190711 19.6602982,35.190711 20.7321667,34.5718674 C21.8040352,33.9530239 22.4643334,32.8093538 22.4643333,31.5716667 C22.4634282,31.3461325 22.4400911,31.1212476 22.3946667,30.9003333 C22.0686895,32.5157767 20.6480026,33.6767111 19,33.6743333 Z" id="Shape" fill="#D8E3F0" fill-rule="nonzero"></path>
                    <rect id="Rectangle-path" fill="#D8E3F0" fill-rule="nonzero" transform="translate(19.003167, 29.693833) rotate(180.000000) translate(-19.003167, -29.693833) " x="12.8756667" y="28.3796667" width="12.255" height="2.62833333" rx="1.2288"></rect>
                    <path d="M21.8120141,18.0436667 L23.4776808,18.0436667 L23.4776808,19.7093333 C23.4776808,20.4998369 22.836851,21.1406667 22.0463474,21.1406667 L21.8183474,21.1406667 C21.0278439,21.1406667 20.3870141,20.4998369 20.3870141,19.7093333 L20.3870141,19.4813333 C20.3853307,19.101719 20.5345193,18.7369844 20.8017595,18.4673688 C21.0689996,18.1977531 21.4323997,18.0453427 21.8120141,18.0436667 Z" id="Shape" fill="#FFDEAD" fill-rule="nonzero" transform="translate(21.932340, 19.592167) rotate(180.000000) translate(-21.932340, -19.592167) "></path>
                    <path d="M15.941,18.0436667 L16.169,18.0436667 C16.9595036,18.0436667 17.6003333,18.6844964 17.6003333,19.475 L17.6003333,21.1406667 L15.941,21.1406667 C15.1504964,21.1406667 14.5096667,20.4998369 14.5096667,19.7093333 L14.5096667,19.4813333 C14.5079821,19.100624 14.6580389,18.7349296 14.9266487,18.4651312 C15.1952586,18.1953328 15.5602869,18.0436629 15.941,18.0436667 Z" id="Shape" fill="#FFDEAD" fill-rule="nonzero"></path>
                    <path d="M29.2663333,17.6256667 C29.2624738,14.7897075 28.0921066,12.0802272 26.03,10.1333333 C23.3340143,7.64438299 19.5149816,6.78278929 16.0114946,7.87310623 C12.5080075,8.96342318 9.85232916,11.8400057 9.04482784,15.419273 C8.23732653,18.9985402 9.40068092,22.7367164 12.0966667,25.2256667 C13.0469668,26.1015228 13.7817868,27.1853282 14.2436667,28.3923333 L14.06,28.3923333 C13.0386414,28.3923333 12.2106667,29.2203081 12.2106667,30.2416667 L12.2106667,30.4 C12.1968137,30.9036191 12.3890296,31.3910904 12.7428779,31.7497204 C13.0967262,32.1083505 13.5815737,32.307092 14.0853333,32.3 L14.934,32.3 C15.1904114,34.3505053 16.933525,35.8892219 19,35.8892219 C21.066475,35.8892219 22.8095886,34.3505053 23.066,32.3 L23.9146667,32.3 C24.4140465,32.3001875 24.8922761,32.0984079 25.2405873,31.7405539 C25.5888986,31.3826998 25.7776817,30.8991924 25.764,30.4 L25.764,30.21 C25.764,29.1886414 24.9360253,28.3606667 23.9146667,28.3606667 L23.7563333,28.3606667 C24.2451599,27.1321971 25.0025319,26.0285979 25.973,25.1306667 C28.0612318,23.1919549 29.2534475,20.4750787 29.2663333,17.6256667 Z M19,34.6053333 C17.6397332,34.6046438 16.472244,33.6366117 16.2196667,32.3 L21.7803333,32.3 C21.527756,33.6366117 20.3602668,34.6046438 19,34.6053333 Z M23.9146667,29.6526667 C24.2364646,29.6526667 24.4973333,29.9135354 24.4973333,30.2353333 L24.4973333,30.4 C24.4973333,30.7217979 24.2364646,30.9826667 23.9146667,30.9826667 L14.0853333,30.9826667 C13.7635354,30.9826667 13.5026667,30.7217979 13.5026667,30.4 L13.5026667,30.21 C13.5026667,29.8882021 13.7635354,29.6273333 14.0853333,29.6273333 L23.9146667,29.6526667 Z M16.948,21.1406667 L15.941,21.1406667 C15.5017119,21.1372211 15.1464456,20.7819548 15.143,20.3426667 L15.143,20.1083333 C15.1464456,19.6690452 15.5017119,19.3137789 15.941,19.3103333 L16.1753333,19.3103333 C16.6146215,19.3137789 16.9698878,19.6690452 16.9733333,20.1083333 L16.948,21.1406667 Z M18.2146667,28.386 L18.2146667,22.4073333 L19.7346667,22.4073333 L19.7346667,28.386 L18.2146667,28.386 Z M22.3756667,28.386 L21.0266667,28.386 L21.0266667,22.4073333 L22.059,22.4073333 C23.1992839,22.4073333 24.1236667,21.4829506 24.1236667,20.3426667 L24.1236667,20.1083333 C24.1236667,18.9680494 23.1992839,18.0436667 22.059,18.0436667 L21.8246667,18.0436667 C20.6858262,18.0471441 19.7634774,18.9694929 19.76,20.1083333 L19.76,21.1406667 L18.24,21.1406667 L18.24,20.1083333 C18.2365226,18.9694929 17.3141738,18.0471441 16.1753333,18.0436667 L15.941,18.0436667 C14.8007161,18.0436667 13.8763333,18.9680494 13.8763333,20.1083333 L13.8763333,20.3426667 C13.8763333,21.4829506 14.8007161,22.4073333 15.941,22.4073333 L16.9733333,22.4073333 L16.9733333,28.386 L15.618,28.386 C15.0982863,26.8208879 14.186974,25.4146763 12.9706667,24.301 C10.9416108,22.4753623 9.85516635,19.8245311 10.0193333,17.1 C10.3281672,12.5837326 13.9093371,8.98097314 18.4236667,8.645 C20.9049401,8.48764108 23.3408809,9.36304234 25.1543995,11.0638157 C26.967918,12.764589 27.9976577,15.1394094 27.9996667,17.6256667 C27.9931643,20.1306179 26.9472987,22.5205124 25.1116667,24.225 C23.8804116,25.3686004 22.9494871,26.7976131 22.401,28.386 L22.3756667,28.386 Z M21.0266667,21.1406667 L21.0266667,20.1083333 C21.0301122,19.6690452 21.3853785,19.3137789 21.8246667,19.3103333 L22.059,19.3103333 C22.4982881,19.3137789 22.8535544,19.6690452 22.857,20.1083333 L22.857,20.3426667 C22.8535544,20.7819548 22.4982881,21.1372211 22.059,21.1406667 L21.0266667,21.1406667 Z" id="Shape" fill="#002F49" fill-rule="nonzero"></path>
                    <path d="M13.623,12.4133333 C12.8618747,13.1519067 12.2623399,14.0404259 11.8623333,15.0226667 C11.7311479,15.3444609 11.8837597,15.7118596 12.2043333,15.846 C12.2808354,15.8772912 12.3623754,15.8944575 12.445,15.8966667 C12.7045424,15.8969179 12.9379694,15.73879 13.034,15.4976667 C13.3655737,14.6708783 13.8660161,13.9223719 14.5033333,13.3 C14.7551752,13.0569027 14.762264,12.6556752 14.5191667,12.4038333 C14.2760693,12.1519915 13.8748418,12.1449027 13.623,12.388 L13.623,12.4133333 Z" id="Shape" fill="#002F49" fill-rule="nonzero"></path>
                    <path d="M16.5046667,10.6463333 C16.2035129,10.7469347 15.9094141,10.8675364 15.6243333,11.0073333 C15.3581906,11.1362257 15.2166661,11.4321367 15.283381,11.720224 C15.350096,12.0083114 15.6072912,12.2118873 15.903,12.2106667 C15.9995009,12.2110616 16.0948159,12.1893991 16.1816667,12.1473333 C16.4192822,12.0292455 16.6647525,11.9276716 16.9163333,11.8433333 C17.2467066,11.7294635 17.4224238,11.3695267 17.309,11.039 C17.1951301,10.7086267 16.8351934,10.5329096 16.5046667,10.6463333 Z" id="Shape" fill="#002F49" fill-rule="nonzero"></path>
                    <path d="M19,5.09833333 C19.3497803,5.09833333 19.6333333,4.81478034 19.6333333,4.465 L19.6333333,2.76133333 C19.6333333,2.41155299 19.3497803,2.128 19,2.128 C18.6502197,2.128 18.3666667,2.41155299 18.3666667,2.76133333 L18.3666667,4.465 C18.3666667,4.63297044 18.4333927,4.79406126 18.5521657,4.91283429 C18.6709387,5.03160733 18.8320296,5.09833333 19,5.09833333 Z" id="Shape" fill="#002F49" fill-rule="nonzero"></path>
                    <path d="M9.24666667,8.77166667 C9.49945907,8.98520466 9.87403271,8.9681364 10.1063572,8.732493 C10.3386817,8.4968496 10.3504354,8.12207155 10.1333333,7.87233333 L8.92366667,6.669 C8.67238516,6.45380803 8.29781036,6.46827623 8.06387663,6.70220996 C7.8299429,6.93614369 7.8154747,7.31071849 8.03066667,7.562 L9.24666667,8.77166667 Z" id="Shape" fill="#002F49" fill-rule="nonzero"></path>
                    <path d="M5.83933333,16.9923333 L4.13566667,16.9923333 C3.78588633,16.9923333 3.50233333,17.2758863 3.50233333,17.6256667 C3.50233333,17.975447 3.78588633,18.259 4.13566667,18.259 L5.83933333,18.259 C6.18911367,18.259 6.47266667,17.975447 6.47266667,17.6256667 C6.47266667,17.2758863 6.18911367,16.9923333 5.83933333,16.9923333 Z" id="Shape" fill="#002F49" fill-rule="nonzero"></path>
                    <path d="M9.24666667,26.4796667 L8.04333333,27.6893333 C7.82814136,27.9406148 7.84260956,28.3151896 8.07654329,28.5491234 C8.31047702,28.7830571 8.68505182,28.7975253 8.93633333,28.5823333 L10.1333333,27.379 C10.2939838,27.2183496 10.3567249,26.9841965 10.2979228,26.7647439 C10.2391206,26.5452913 10.0677087,26.3738794 9.8482561,26.3150772 C9.62880353,26.2562751 9.39465042,26.3190162 9.234,26.4796667 L9.24666667,26.4796667 Z" id="Shape" fill="#002F49" fill-rule="nonzero"></path>
                    <path d="M28.7533333,26.4796667 C28.5972491,26.3001189 28.3537092,26.2231884 28.1228069,26.280493 C27.8919047,26.3377977 27.7125938,26.5196702 27.6585699,26.7513621 C27.604546,26.9830539 27.6849231,27.2254781 27.8666667,27.379 L29.0763333,28.5823333 C29.3276148,28.7975253 29.7021896,28.7830571 29.9361234,28.5491234 C30.1700571,28.3151896 30.1845253,27.9406148 29.9693333,27.6893333 L28.7533333,26.4796667 Z" id="Shape" fill="#002F49" fill-rule="nonzero"></path>
                    <path d="M33.8643333,16.9923333 L32.1606667,16.9923333 C31.8108863,16.9923333 31.5273333,17.2758863 31.5273333,17.6256667 C31.5273333,17.975447 31.8108863,18.259 32.1606667,18.259 L33.8643333,18.259 C34.2141137,18.259 34.4976667,17.975447 34.4976667,17.6256667 C34.4976667,17.2758863 34.2141137,16.9923333 33.8643333,16.9923333 Z" id="Shape" fill="#002F49" fill-rule="nonzero"></path>
                    <path d="M29.0636667,6.669 L27.8666667,7.87233333 C27.6183226,8.12067738 27.6183226,8.52332262 27.8666667,8.77166667 C28.1150107,9.02001071 28.517656,9.02001071 28.766,8.77166667 L29.9693333,7.562 C30.1845253,7.31071849 30.1700571,6.93614369 29.9361234,6.70220996 C29.7021896,6.46827623 29.3276148,6.45380803 29.0763333,6.669 L29.0636667,6.669 Z" id="Shape" fill="#002F49" fill-rule="nonzero"></path>
                </g>
            </g>
        </g>
    </g>
</svg>